<svg xmlns="http://www.w3.org/2000/svg" viewBox="0 0 323.63 94.02"><defs><style>.cls-1{fill:#231f20;}</style></defs><title>about_explain_title</title><g id="Layer_2" data-name="Layer 2"><g id="レイヤー_1" data-name="レイヤー 1"><g id="_Group_" data-name="&lt;Group&gt;"><g id="_Group_2" data-name="&lt;Group&gt;"><path id="_Compound_Path_" data-name="&lt;Compound Path&gt;" class="cls-1" d="M65.34,8.29C65.34,3.17,68.17,0,72.25,0a5.55,5.55,0,0,1,4.22,1.94l-.75.86a4.51,4.51,0,0,0-3.48-1.61c-3.39,0-5.52,2.73-5.52,7.06s2.09,7.17,5.46,7.17a5.13,5.13,0,0,0,4-1.94l.75.84a6,6,0,0,1-4.8,2.29C68.15,16.61,65.34,13.42,65.34,8.29Z"/><path id="_Compound_Path_2" data-name="&lt;Compound Path&gt;" class="cls-1" d="M90.83,16.33,86.57,9.09H83.29v7.24H82V.29h4.69C89.85.29,92,1.45,92,4.58c0,2.55-1.56,4-4,4.4l4.33,7.35ZM83.29,8h3.06c2.77,0,4.31-1.1,4.31-3.41s-1.54-3.19-4.31-3.19H83.29Z"/><path id="_Compound_Path_3" data-name="&lt;Compound Path&gt;" class="cls-1" d="M97.33.29h8.87V1.41H98.66V7.26H105V8.38H98.66v6.8h7.79v1.14H97.33Z"/><path id="_Compound_Path_4" data-name="&lt;Compound Path&gt;" class="cls-1" d="M120,10.94h-6.25l-1.83,5.39h-1.32l5.61-16h1.36l5.61,16h-1.41Zm-.35-1.06-1-2.9c-.66-1.87-1.19-3.56-1.76-5.5h-.09c-.55,1.94-1.1,3.63-1.74,5.5l-1,2.9Z"/><path id="_Compound_Path_5" data-name="&lt;Compound Path&gt;" class="cls-1" d="M129.5,1.41h-5V.29h11.44V1.41h-5.06V16.33H129.5Z"/><path id="_Compound_Path_6" data-name="&lt;Compound Path&gt;" class="cls-1" d="M140.85.29h1.32v16h-1.32Z"/><path id="_Compound_Path_7" data-name="&lt;Compound Path&gt;" class="cls-1" d="M146.8.29h1.41l2.88,9.22c.59,1.94,1,3.43,1.65,5.37h.09c.66-1.94,1.08-3.43,1.69-5.37L157.38.29h1.34l-5.21,16h-1.45Z"/><path id="_Compound_Path_8" data-name="&lt;Compound Path&gt;" class="cls-1" d="M163.37.29h8.87V1.41h-7.55V7.26h6.36V8.38h-6.36v6.8h7.79v1.14h-9.11Z"/><path id="_Compound_Path_9" data-name="&lt;Compound Path&gt;" class="cls-1" d="M185.26.29h4.42c3.23,0,5.35,1.19,5.35,3.89a3.45,3.45,0,0,1-2.46,3.5v.11A3.72,3.72,0,0,1,196,11.64c0,3.1-2.38,4.69-6,4.69h-4.75Zm4,7c3.17,0,4.44-1.12,4.44-2.95,0-2.18-1.47-3-4.31-3h-2.82V7.28Zm.44,7.94c3.1,0,5-1.1,5-3.59,0-2.24-1.8-3.3-5-3.3h-3.12v6.89Z"/><path id="_Compound_Path_10" data-name="&lt;Compound Path&gt;" class="cls-1" d="M210.24,16.33,206,9.09h-3.28v7.24h-1.32V.29h4.69c3.19,0,5.35,1.17,5.35,4.29,0,2.55-1.56,4-4,4.4l4.33,7.35ZM202.69,8h3.06c2.77,0,4.31-1.1,4.31-3.41s-1.54-3.19-4.31-3.19h-3.06Z"/><path id="_Compound_Path_11" data-name="&lt;Compound Path&gt;" class="cls-1" d="M225,10.94h-6.25l-1.83,5.39h-1.32l5.61-16h1.36l5.61,16H226.8Zm-.35-1.06-1-2.9c-.66-1.87-1.19-3.56-1.76-5.5h-.09c-.55,1.94-1.1,3.63-1.74,5.5l-1,2.9Z"/><path id="_Compound_Path_12" data-name="&lt;Compound Path&gt;" class="cls-1" d="M232.9.29h1.32v16H232.9Z"/><path id="_Compound_Path_13" data-name="&lt;Compound Path&gt;" class="cls-1" d="M240.59.29H242l6.56,11,1.78,3.23h.11c-.09-1.58-.18-3.19-.18-4.75V.29h1.25v16h-1.36l-6.53-11-1.8-3.21h-.11c.07,1.54.18,3,.18,4.64v9.62h-1.25Z"/><path id="_Compound_Path_14" data-name="&lt;Compound Path&gt;" class="cls-1" d="M5.08,38.24c.95,0,5.7-.2,6.89-.33a6.78,6.78,0,0,0,1-.18l.77.81a6.12,6.12,0,0,0-.86.59c-1.65,1.39-5.39,4.51-7.28,6,3.54-.37,7.61-.7,11-.7v1.08a31.81,31.81,0,0,0-5.46.13C9,46,6.67,48,6.67,50.19c0,2.44,2,3.21,4,3.52a13.37,13.37,0,0,0,3,.09l-.24,1.14c-5.17.22-7.88-1.43-7.88-4.62a5.4,5.4,0,0,1,3.1-4.49c-2.53.22-5.72.57-8.56,1L0,45.79c1.19-.13,2.62-.33,3.7-.46,2.62-1.85,6.42-5.17,7.81-6.4-1,.07-5.43.29-6.4.35-.57,0-1.17.09-1.52.13l-.07-1.23A15.45,15.45,0,0,0,5.08,38.24Z"/><path id="_Compound_Path_15" data-name="&lt;Compound Path&gt;" class="cls-1" d="M41,52.26A5.52,5.52,0,0,1,37,54.19a2.16,2.16,0,0,1-2.24-2.44c0-2.46.84-6.27.84-8.45,0-1.39-.68-1.91-1.89-1.91-1.87,0-4.62,2-6.78,4.36,0,1.08-.09,2.11-.09,3,0,2.11,0,3.15.07,5L27,54.9H25.71a7.77,7.77,0,0,0,.07-1.1c0-2.09,0-3,0-5.17,0-.48,0-1.3.09-2.24-1.12,1.69-2.79,4.07-4,5.83l-.75-1C22.32,49.71,25,46,26,44.4c.07-.84.11-1.69.18-2.49l-4.42.59-.11-1.23a9.64,9.64,0,0,0,1.14,0c.73,0,2.24-.22,3.45-.42.07-1.14.13-2,.13-2.29a10.48,10.48,0,0,0-.07-1.41l1.41.07c-.09.48-.24,1.78-.42,3.43l.22-.07.51.55c-.24.4-.59.92-.88,1.41L27,44.25c1.63-1.61,4.62-3.92,6.87-3.92a2.55,2.55,0,0,1,2.84,2.77c0,2.13-.86,6.21-.86,8.38,0,.84.37,1.52,1.3,1.52a5.08,5.08,0,0,0,3.56-1.94Z"/><path id="_Compound_Path_16" data-name="&lt;Compound Path&gt;" class="cls-1" d="M48.53,37.71a6.88,6.88,0,0,0-.29,1.17,51.28,51.28,0,0,0-1.12,9,29.31,29.31,0,0,0,.26,3.92c.37-1.12,1-2.75,1.39-3.72l.68.53a46.7,46.7,0,0,0-1.54,4.58,3.42,3.42,0,0,0-.09.95c0,.2,0,.48.07.66l-1,.09A27.59,27.59,0,0,1,46.09,48a66.29,66.29,0,0,1,1-9.2,9.18,9.18,0,0,0,.11-1.21ZM63.16,53.23a15,15,0,0,0-3.7-2.66c0,.31,0,.62,0,.88,0,1.5-.66,3.3-3.5,3.3s-4.31-1.17-4.31-2.93c0-1.58,1.5-3,4.29-3a9.87,9.87,0,0,1,2.35.29c-.09-1.87-.22-4.38-.24-6.25-.79,0-1.61,0-2.4,0-1.23,0-2.31-.07-3.56-.15V41.63c1.21.11,2.35.18,3.61.18.79,0,1.58,0,2.35,0,0-1.14,0-2.18,0-2.88A11.81,11.81,0,0,0,58,37.6h1.32a12.51,12.51,0,0,0-.13,1.25c0,.68,0,1.83,0,2.84a33.45,33.45,0,0,0,4-.51v1.12c-1.28.2-2.6.35-4,.44,0,2.16.18,4.62.26,6.67a15,15,0,0,1,4.33,2.86Zm-4.8-3.08a7.89,7.89,0,0,0-2.51-.4c-1.85,0-3.12.86-3.12,2s1.14,2,3,2c2.11,0,2.68-1,2.68-2.6C58.39,50.83,58.39,50.52,58.37,50.15Z"/><path id="_Compound_Path_17" data-name="&lt;Compound Path&gt;" class="cls-1" d="M77.93,37.56c.18,2.68,1.39,13.49,9.86,17.29a3.82,3.82,0,0,0-.81.88c-6.23-2.9-8.58-9.51-9.48-14-.77,4.64-2.93,10.87-9.2,14a4.1,4.1,0,0,0-.81-.81c9-4.38,9.22-15.23,9.37-18.15H78Z"/><path id="_Compound_Path_18" data-name="&lt;Compound Path&gt;" class="cls-1" d="M111.45,53.09v1.06H92V53.09h9.13V39.67h-8V38.59h17.38v1.08h-8.23V53.09Z"/><path id="_Compound_Path_19" data-name="&lt;Compound Path&gt;" class="cls-1" d="M121.59,44.07c0,.29,0,.59,0,.9H126v1h-4.49a18.57,18.57,0,0,1-.26,1.85c1,1,3.83,4.12,4.51,4.91l-.73.9c-.75-1-2.82-3.41-4-4.73a12,12,0,0,1-4.77,7,4,4,0,0,0-.7-.79A11.64,11.64,0,0,0,120.47,46h-4.77V45h4.82c0-.33,0-.62,0-.92V40h-2.18a15.84,15.84,0,0,1-1.91,3.76c-.2-.18-.66-.46-.88-.62A18.58,18.58,0,0,0,118.44,36l1,.2c-.22,1-.48,1.94-.77,2.86h6.6v1h-3.72Zm12.81-6.16V55.1h-1.06V53.47h-5.52v1.83h-1V37.91Zm-1.06,14.54V38.92h-5.52V52.46Z"/><path id="_Compound_Path_20" data-name="&lt;Compound Path&gt;" class="cls-1" d="M146.8,37.56a22.84,22.84,0,0,1,3,4.8l-.86.44a11.17,11.17,0,0,0-.68-1.39c-3.19.18-6.45.33-8.71.44l-.11-1.06,1.63,0A38.46,38.46,0,0,0,143.39,36l1.08.29c-.66,1.41-1.5,3.08-2.27,4.38l5.54-.24A24.69,24.69,0,0,0,146,37.93Zm1.54,16.92c0,.68-.15,1-.64,1.21a12.76,12.76,0,0,1-2.88.18,4.2,4.2,0,0,0-.37-1c1.21,0,2.18,0,2.49,0s.37-.07.37-.33V51.27h-5.48v4.62h-1V43.74h7.53Zm-6.51-9.79V47h5.48V44.69Zm5.48,5.68V47.92h-5.48v2.44Zm5.63-4.88c-1.83,0-2.33-.35-2.33-1.78V36h1.06v4a47.77,47.77,0,0,0,5.76-2.2l.75.79a54.34,54.34,0,0,1-6.51,2.29v2.79c0,.66.2.81,1.3.81h4.14c.92,0,1.1-.4,1.19-2.71a3,3,0,0,0,1,.44c-.13,2.6-.48,3.26-2.09,3.26Zm4.38,9.26c1,0,1.19-.44,1.28-3.06a2.78,2.78,0,0,0,1,.42c-.18,2.88-.53,3.61-2.2,3.61H153c-1.87,0-2.4-.35-2.4-1.83v-7.7h1.06V50a28.77,28.77,0,0,0,6.07-2.44l.73.81a30.27,30.27,0,0,1-6.8,2.53v3c0,.7.22.86,1.39.86Z"/><path id="_Compound_Path_21" data-name="&lt;Compound Path&gt;" class="cls-1" d="M164.32,47.55a20.28,20.28,0,0,1,3.21-11l.79.42a20.9,20.9,0,0,0,0,21.25l-.79.4A20.21,20.21,0,0,1,164.32,47.55Z"/><path id="_Compound_Path_22" data-name="&lt;Compound Path&gt;" class="cls-1" d="M180.75,48.94H174.5l-1.83,5.39h-1.32l5.61-16h1.36l5.61,16h-1.41Zm-.35-1.06-1-2.9c-.66-1.87-1.19-3.56-1.76-5.5h-.09c-.55,1.94-1.1,3.63-1.74,5.5l-1,2.9Z"/><path id="_Compound_Path_23" data-name="&lt;Compound Path&gt;" class="cls-1" d="M188.63,38.29H190v16h-1.32Z"/><path id="_Compound_Path_24" data-name="&lt;Compound Path&gt;" class="cls-1" d="M194.58,58.18a20.9,20.9,0,0,0,0-21.25l.79-.42a20.56,20.56,0,0,1,0,22.07Z"/><path id="_Compound_Path_25" data-name="&lt;Compound Path&gt;" class="cls-1" d="M213.29,51.47c0-.92.09-2.62.09-3.83-2.24,1.19-4,2.46-4,4.14,0,2,2.07,2.2,4.4,2.2a40,40,0,0,0,5.79-.48l0,1.17a51.9,51.9,0,0,1-5.83.35c-2.95,0-5.43-.57-5.43-3.12s2.49-4,5.06-5.33h0a1.91,1.91,0,0,0-2.16-1.72,5.93,5.93,0,0,0-4,1.65,27.24,27.24,0,0,0-2,2.22l-1-.75a22.65,22.65,0,0,0,5.13-7.06c-.44,0-.88,0-1.28,0-1,0-2.31,0-3.52-.11V39.67a31.17,31.17,0,0,0,3.59.22c.53,0,1.06,0,1.61,0a12.32,12.32,0,0,0,.66-2.82l1.17.09c-.15.68-.37,1.65-.7,2.71a54,54,0,0,0,6.93-.68v1.1a60.52,60.52,0,0,1-7.3.62,16,16,0,0,1-2.38,4,6.34,6.34,0,0,1,3.32-1,2.68,2.68,0,0,1,2.88,2.18c1.69-.81,3.3-1.45,4.6-2,.53-.24.92-.44,1.41-.7l.48,1.12c-.46.13-1,.35-1.52.55-1.39.55-3.15,1.25-5,2.13,0,1.25,0,3.28,0,4.36Z"/><path id="_Compound_Path_26" data-name="&lt;Compound Path&gt;" class="cls-1" d="M230.08,45.42c-.9-.62-2.66-1.67-4-2.4l.57-.75c1.32.68,3.13,1.67,4,2.29Zm-3.41,9.5a61.94,61.94,0,0,0,4.2-7.17l.77.68c-1.17,2.31-2.79,5.21-4,7.19Zm1.06-18.64a37.89,37.89,0,0,1,4.2,2.33l-.62.86A43.9,43.9,0,0,0,227.14,37Zm11.84,7.2v4.14h4.69V55.8h-1V55h-8.6v1h-1V47.62h4.91V43.48H232v-1h6.6V38.31c-1.74.26-3.5.44-5.17.62a7,7,0,0,0-.31-.88A64.55,64.55,0,0,0,244,36.13l.86.81a37.88,37.88,0,0,1-5.3,1.19v4.33h6.32v1Zm3.67,5.13h-8.6V54h8.6Z"/><path id="_Compound_Path_27" data-name="&lt;Compound Path&gt;" class="cls-1" d="M268,54.22c0,.88-.26,1.23-.9,1.43a17.56,17.56,0,0,1-4,.18,3.27,3.27,0,0,0-.37-1c1.72,0,3.23,0,3.67,0s.57-.13.57-.57V49h-6.67v6.73h-1.06V49h-6.09a13,13,0,0,1-2.75,7,2.91,2.91,0,0,0-.81-.75c2.44-2.75,2.68-6.65,2.68-9.75v-8H268ZM259.19,48V43.76h-5.92v1.8c0,.77,0,1.61-.09,2.44Zm-5.92-9.4v4.14h5.92V38.62Zm13.64,0h-6.67v4.14h6.67Zm0,9.4V43.76h-6.67V48Z"/><path id="_Compound_Path_28" data-name="&lt;Compound Path&gt;" class="cls-1" d="M277.52,37.43a11.53,11.53,0,0,0-.18,1.76c-.09,2.53-.26,7.86-.26,11.44,0,2.49,1.67,3.39,3.92,3.39,4.2,0,6.47-2.33,8-4.53l.79,1a10.66,10.66,0,0,1-8.87,4.71c-2.88,0-5-1.17-5-4.62s.24-8.8.24-11.35a8.41,8.41,0,0,0-.13-1.76Z"/><path id="_Compound_Path_29" data-name="&lt;Compound Path&gt;" class="cls-1" d="M305.31,41.17a40.63,40.63,0,0,1-4.69.75c-.2,1-.44,2-.7,2.95a60.62,60.62,0,0,1-3.39,9.92l-1.3-.42a47.41,47.41,0,0,0,3.59-9.73c.22-.77.44-1.72.64-2.62-.84.07-1.63.11-2.33.11-.9,0-1.65,0-2.46-.09l0-1.14a18.16,18.16,0,0,0,2.53.18c.75,0,1.61,0,2.53-.13.2-1,.35-1.8.42-2.29a7.39,7.39,0,0,0,.07-1.54l1.41.11c-.11.42-.26,1.14-.33,1.54-.13.59-.26,1.3-.42,2.07a32.06,32.06,0,0,0,4.47-.84Zm-1.12,7.9a7.54,7.54,0,0,0-.33,2c0,1.08.46,2.22,4,2.22a20.24,20.24,0,0,0,4.12-.42l0,1.19a27.78,27.78,0,0,1-4.09.31c-3.3,0-5.06-.95-5.06-3.08a11.52,11.52,0,0,1,.31-2.38Zm-.11-5.19c1.08-.11,2.46-.18,3.85-.18a33.39,33.39,0,0,1,3.74.18l0,1.12a27.13,27.13,0,0,0-3.63-.24,33.86,33.86,0,0,0-3.92.22Z"/><path id="_Compound_Path_30" data-name="&lt;Compound Path&gt;" class="cls-1" d="M322.64,55.38a34.86,34.86,0,0,0-5-4.93l.9-.81a43.74,43.74,0,0,1,5,4.91Z"/><path id="_Compound_Path_31" data-name="&lt;Compound Path&gt;" class="cls-1" d="M27.42,77.41h-5V76.29H33.82v1.12H28.76V92.33H27.42Z"/><path id="_Compound_Path_32" data-name="&lt;Compound Path&gt;" class="cls-1" d="M37.67,76.29h1.41L42,85.5c.59,1.94,1,3.43,1.65,5.37h.09c.66-1.94,1.08-3.43,1.69-5.37l2.86-9.22h1.34l-5.21,16H42.93Z"/><path id="_Compound_Path_33" data-name="&lt;Compound Path&gt;" class="cls-1" d="M52.8,84.29c0-5.13,2.84-8.29,6.91-8.29a5.55,5.55,0,0,1,4.22,1.94l-.75.86a4.51,4.51,0,0,0-3.48-1.61c-3.39,0-5.52,2.73-5.52,7.06s2.09,7.17,5.46,7.17a5.13,5.13,0,0,0,4-1.94l.75.84a6,6,0,0,1-4.8,2.29C55.62,92.61,52.8,89.42,52.8,84.29Z"/><path id="_Compound_Path_34" data-name="&lt;Compound Path&gt;" class="cls-1" d="M69.43,76.29H71.2l3.3,9.22L75.75,89h.09c.42-1.17.79-2.35,1.19-3.52l3.3-9.22h1.76v16H80.83V82.16c0-1.32.09-3.08.15-4.42H80.9l-1.25,3.59-3.37,9.29H75.22l-3.39-9.29-1.25-3.59h-.09c.07,1.34.15,3.1.15,4.42V92.33H69.43Z"/><path id="_Compound_Path_35" data-name="&lt;Compound Path&gt;" class="cls-1" d="M95.26,78.73a28,28,0,0,1-2.18,9.62,15.71,15.71,0,0,1,2.6,2.38l-.64.86a16.49,16.49,0,0,0-2.42-2.29A11.75,11.75,0,0,1,88.22,94a4.14,4.14,0,0,0-.68-.86,10.37,10.37,0,0,0,4.22-4.45,24.42,24.42,0,0,0-2.9-1.91l-.29,1-.9-.46c.57-1.94,1.3-4.82,1.94-7.68H87.27v-1h2.55c.37-1.65.73-3.26,1-4.64l1,.13c-.26,1.36-.59,2.93-1,4.51h3.59l.18,0Zm-4.62.9c-.51,2.16-1,4.31-1.52,6.16a34.16,34.16,0,0,1,3.1,1.94,25.85,25.85,0,0,0,2-8.1Zm16.66,4.29h-5.5v8.43c0,.81-.22,1.14-.81,1.34a18.22,18.22,0,0,1-3.54.18A4.59,4.59,0,0,0,97,92.81c1.56,0,2.84,0,3.23,0s.51-.11.51-.46V83.92H95.24v-1h5.52V79.76h.55a19.94,19.94,0,0,0,3.81-3.63H96v-1h9.95l.22-.07.7.48a23,23,0,0,1-5.06,5v2.38h5.5Z"/><path id="_Compound_Path_36" data-name="&lt;Compound Path&gt;" class="cls-1" d="M114,79.61c0,2.46-.37,5.9-2.33,8.36a2.5,2.5,0,0,0-.79-.66c1.85-2.33,2.11-5.43,2.11-7.7V76.35h9.33c-.11-.77-.18-1.56-.22-2.35h1a20.13,20.13,0,0,0,.22,2.35h7.33v.92h-7.2a20.35,20.35,0,0,0,1.8,5.52,16.54,16.54,0,0,0,2-4.16l1,.22a19.53,19.53,0,0,1-2.49,4.93c1.1,1.8,2.35,2.86,3.43,2.86.59,0,.84-.79.92-2.84a2.65,2.65,0,0,0,.9.44c-.2,2.6-.68,3.39-1.89,3.39-1.36,0-2.79-1.12-4-3a16.18,16.18,0,0,1-2.93,2.84,6.62,6.62,0,0,0-.81-.73,13.89,13.89,0,0,0,3.19-3,21.58,21.58,0,0,1-2.16-6.42H114Zm-3,13.27a7.91,7.91,0,0,0,3-4.38l.92.33a8.92,8.92,0,0,1-3.1,4.64Zm10.85-13H115V79h6.87Zm-.48,6.27h-5.87V81.63h5.88Zm-.95-3.65h-4v2.79h4Zm3.46,10.19c1,0,1.21-.29,1.3-2.53a2.19,2.19,0,0,0,1,.4c-.18,2.53-.53,3.12-2.22,3.12h-4.69c-2,0-2.51-.29-2.51-1.63V88.28h1V92c0,.55.22.66,1.5.66Zm-5-5.83a13,13,0,0,1,4,2.57l-.73.7a15.11,15.11,0,0,0-4-2.64Zm9.2-10.63A11.07,11.07,0,0,0,125,74.59l.57-.68a11.2,11.2,0,0,1,3.21,1.54Zm-1.25,12.15A15.08,15.08,0,0,1,131,92.68l-.9.55A14.92,14.92,0,0,0,126,88.87Z"/><path id="_Compound_Path_37" data-name="&lt;Compound Path&gt;" class="cls-1" d="M138.28,77.28v5.43c0,3.3-.26,8-2.11,11.31a3.41,3.41,0,0,0-.88-.59c1.78-3.15,2-7.55,2-10.72V76.29h8.25V74h1.08v2.29h8.49v1Zm14.85,9.59a11.24,11.24,0,0,1-4.8,4.47A26.33,26.33,0,0,0,155.42,93a4.2,4.2,0,0,0-.62.92,26.32,26.32,0,0,1-7.59-2.09,29.19,29.19,0,0,1-8.08,2,4,4,0,0,0-.46-.92,29.08,29.08,0,0,0,7.44-1.67,11.39,11.39,0,0,1-4-3.52l.75-.33h-3.39v-.92h12.78l.2-.07Zm-10.21-2V81.06h-3.85v-.92h3.85V78h1v2.18h6.16V78h1v2.18h3.76v.92h-3.76v3.76Zm.13,2.64a10.43,10.43,0,0,0,4.18,3.37,10.68,10.68,0,0,0,4.33-3.37Zm.88-6.4v2.86h6.16V81.06Z"/><path id="_Compound_Path_38" data-name="&lt;Compound Path&gt;" class="cls-1" d="M178.86,82.42a33,33,0,0,1-4.18,5.15l-.86-.55a23.93,23.93,0,0,0,3.23-3.92h-7.33v9.24c0,.79-.22,1.12-.86,1.3a19,19,0,0,1-3.81.18,4.82,4.82,0,0,0-.4-1c1.65,0,3.06,0,3.48,0s.51-.11.51-.46V83.11h-9.29v-1h12.08c-1.91-1.06-4.82-2.51-7.11-3.54l.59-.75c1.32.57,2.84,1.3,4.27,2a28.67,28.67,0,0,0,5.08-3.61H161.39v-1h13.93l.26-.07.77.57a33.48,33.48,0,0,1-6.09,4.64c1,.48,2,1,2.66,1.36l-.29.42h5.17L178,82Z"/><path id="_Compound_Path_39" data-name="&lt;Compound Path&gt;" class="cls-1" d="M183.48,80.16a14.36,14.36,0,0,1,3.72,2.11l-.59.86a16.58,16.58,0,0,0-3.72-2.2Zm3.06,5.9.84.57c-.86,2.25-2,5-3,7l-.95-.59A64.9,64.9,0,0,0,186.54,86.06Zm-2-11.79a15.05,15.05,0,0,1,3.5,2.31l-.66.88A13.68,13.68,0,0,0,183.9,75ZM191,89.44A14.94,14.94,0,0,1,187.68,94a8.93,8.93,0,0,0-.86-.66,13,13,0,0,0,3.12-4.18ZM195.1,75V88.56h-6.25V75Zm-5.28,4.18h4.29V76h-4.29Zm0,4.18h4.29V80.16h-4.29Zm0,4.2h4.29V84.34h-4.29Zm3.83,1.56a27.62,27.62,0,0,1,2.64,3.41l-.84.55a25.89,25.89,0,0,0-2.6-3.5ZM198,76.29V88.72h-1V76.29ZM202,74V92.41c0,.81-.26,1.14-.81,1.34a15.4,15.4,0,0,1-3.34.18,5.06,5.06,0,0,0-.35-1c1.41,0,2.62,0,3,0s.53-.13.53-.48V74Z"/><path id="_Compound_Path_40" data-name="&lt;Compound Path&gt;" class="cls-1" d="M213.07,83.53l-.66,1a47.4,47.4,0,0,0-4.69-2.93l.64-.95C209.55,81.28,212.21,82.91,213.07,83.53Zm3,5.39a22.6,22.6,0,0,0,8.18-8l.7,1.12a25.27,25.27,0,0,1-8.32,7.83,26.32,26.32,0,0,1-7.24,2.75l-.66-1.14A23.72,23.72,0,0,0,216.11,88.92Zm.18-10.1-.7.95a48.68,48.68,0,0,0-4.58-3.1l.62-.95C212.83,76.42,215.42,78.18,216.28,78.82Z"/><path id="_Compound_Path_41" data-name="&lt;Compound Path&gt;" class="cls-1" d="M243.15,77.72a3.84,3.84,0,0,0-.4.73,27.4,27.4,0,0,1-3.85,6.69,66.19,66.19,0,0,1,6.58,6.73l-.95.84A56.94,56.94,0,0,0,238.18,86a27.89,27.89,0,0,1-8.8,6.58l-.88-.95a25.21,25.21,0,0,0,9.09-6.67,20.94,20.94,0,0,0,3.87-6.56h-9.22c-.7,0-1.89.09-2,.09v-1.3c.13,0,1.32.11,2,.11h8.91a4.55,4.55,0,0,0,1.28-.13Z"/><path id="_Compound_Path_42" data-name="&lt;Compound Path&gt;" class="cls-1" d="M265.78,81.94c.46,0,1.06,0,1.56-.07v1.19c-.44,0-1.06,0-1.56,0h-6.36a13.6,13.6,0,0,1-1.25,6.25,11,11,0,0,1-4.27,3.87l-1.06-.79a9.26,9.26,0,0,0,4.25-3.5c1-1.65,1.17-3.63,1.21-5.83h-6.91c-.66,0-1.19,0-1.78,0V81.88c.57,0,1.1.07,1.78.07Zm-11.71-4.38c-.7,0-1.3,0-1.8.07V76.4a14.16,14.16,0,0,0,1.76.11h9a18,18,0,0,0,1.87-.11v1.23c-.59,0-1.32-.07-1.87-.07Z"/><path id="_Compound_Path_43" data-name="&lt;Compound Path&gt;" class="cls-1" d="M287.15,92.92a29.55,29.55,0,0,0-1.32-3c-3.28.4-11.07,1.3-14.1,1.56-.55,0-1.08.11-1.69.2l-.22-1.32a17.18,17.18,0,0,0,1.85,0c.4,0,.86-.07,1.39-.11,1.14-2.77,3.63-10.52,4.25-12.58a11.84,11.84,0,0,0,.37-1.87l1.43.31c-.18.46-.37.88-.66,1.78-.59,2-3,9.57-4.11,12.26,3.56-.31,8.56-.88,11-1.21a36.34,36.34,0,0,0-2.9-4.82l1-.48a59.85,59.85,0,0,1,4.88,8.82Z"/><path id="_Compound_Path_44" data-name="&lt;Compound Path&gt;" class="cls-1" d="M299.74,90.24A3.22,3.22,0,1,1,296.52,87,3.22,3.22,0,0,1,299.74,90.24Zm-.84,0a2.38,2.38,0,1,0-2.38,2.38A2.38,2.38,0,0,0,298.9,90.24Z"/></g></g></g></g></svg>