<svg xmlns="http://www.w3.org/2000/svg" viewBox="0 0 199.69 54.87"><defs><style>.cls-1{fill:#231f20;}.cls-2{fill:#fff;}</style></defs><title>apply_button_small</title><g id="Layer_2" data-name="Layer 2"><g id="レイヤー_1" data-name="レイヤー 1"><g id="_Group_" data-name="&lt;Group&gt;"><rect id="_Rectangle_" data-name="&lt;Rectangle&gt;" class="cls-1" width="199.69" height="54.87" rx="11.08" ry="11.08"/><g id="_Group_2" data-name="&lt;Group&gt;"><path id="_Compound_Path_" data-name="&lt;Compound Path&gt;" class="cls-2" d="M48.93,26.25a16.92,16.92,0,0,1,5-.83c3.32,0,5.71,1.82,5.71,4.54s-1.73,4.52-4.86,5.28a14.61,14.61,0,0,1-2.81.3l-.65-1.82A13.12,13.12,0,0,0,54,33.56c2-.37,3.82-1.45,3.82-3.57,0-1.94-1.75-3-3.92-3a14.7,14.7,0,0,0-5,.9c0,1.94.09,3.94.09,4.93,0,2.12-.81,2.79-2,2.79-1.8,0-4.77-1.73-4.77-3.78,0-1.87,2.37-3.85,5-5V25.58c0-.92,0-2,0-3-.62,0-1.2.07-1.68.07a28.57,28.57,0,0,1-2.9-.12l0-1.75a20.71,20.71,0,0,0,2.9.18c.53,0,1.13,0,1.75-.07,0-1.2,0-2.19,0-2.6a9,9,0,0,0-.14-1.61h2c0,.41-.09,1-.12,1.57s0,1.45-.07,2.47a30,30,0,0,0,4.68-.92l0,1.82A46.27,46.27,0,0,1,49,22.4c0,1.08,0,2.17,0,3.09Zm-1.59,6.36c0-.83,0-2.37-.07-4-1.84.88-3.2,2.17-3.2,3.2s1.57,1.94,2.47,1.94C47.07,33.72,47.34,33.33,47.34,32.61Zm9-13.41a38.42,38.42,0,0,1,5.21,3.34L60.62,24a29.49,29.49,0,0,0-5.12-3.41Z"/><path id="_Compound_Path_2" data-name="&lt;Compound Path&gt;" class="cls-2" d="M84.9,18.79v12.9H83.17v-1.2H76.72v6.27H75V30.49H68.73v1.31H67v-13H75v-3h1.75v3ZM68.73,20.42v3.34H75V20.42ZM75,28.83V25.35H68.73v3.48Zm1.75-8.41v3.34h6.45V20.42Zm6.45,8.41V25.35H76.72v3.48Z"/><path id="_Compound_Path_3" data-name="&lt;Compound Path&gt;" class="cls-2" d="M95.2,17.15c-.12.74-.18,1.54-.23,2.28-.09,2.58-.28,8-.28,11.38,0,2.51,1.61,3.39,3.73,3.39,4.19,0,6.57-2.35,8.2-4.72l1.27,1.59a11.37,11.37,0,0,1-9.52,5c-3.27,0-5.53-1.38-5.53-5.09,0-3.39.23-9.15.23-11.57a11.73,11.73,0,0,0-.21-2.3Z"/><path id="_Compound_Path_4" data-name="&lt;Compound Path&gt;" class="cls-2" d="M116.83,32.13c1.08,1.68,3.09,2.47,5.74,2.58s7.63,0,10.32-.16a7.79,7.79,0,0,0-.55,1.75c-2.51.09-7.24.14-9.77,0-3-.11-5-.94-6.52-2.72-1.11,1-2.26,2-3.48,2.95l-.92-1.73a38.47,38.47,0,0,0,3.5-2.63V26.39h-3.2V24.78h4.88ZM116.11,21a15.9,15.9,0,0,0-3.92-3.64l1.27-1a17.53,17.53,0,0,1,4,3.55Zm9.58-4.08c.58,7,2.35,12.47,7,14.84A7.93,7.93,0,0,0,131.29,33c-3.23-1.89-5.09-5.14-6.13-9.33C124,27.84,122,31,119.06,33a10.07,10.07,0,0,0-1.34-1.27c3.36-2.14,5.3-5.74,6.22-10.44l.74.12c-.16-.94-.28-1.91-.39-2.93H120.1V16.92Z"/><path id="_Compound_Path_5" data-name="&lt;Compound Path&gt;" class="cls-2" d="M156.81,31.3a22.77,22.77,0,0,0-2.37-1.8,10.84,10.84,0,0,1-6,6.8L146.9,35a9.72,9.72,0,0,0,6-6.45,16.82,16.82,0,0,0-6.5-2.05,44.92,44.92,0,0,1-2.88,5.94,3.25,3.25,0,0,1-2.88,1.59,2.92,2.92,0,0,1-3-3.13c0-3.36,3.11-5.94,7.58-6.06.83-1.8,1.66-3.76,2.37-5.18-.9.07-3.66.18-4.72.25a14.34,14.34,0,0,0-1.68.16l-.09-1.94a15.56,15.56,0,0,0,1.73.09c1.2,0,4.19-.16,5.16-.23a4.6,4.6,0,0,0,1.11-.25l1.18.94a3.79,3.79,0,0,0-.6.76c-.65,1-1.61,3.34-2.58,5.48a18.7,18.7,0,0,1,6.2,1.82c.09-.58.14-1.15.18-1.71a15.74,15.74,0,0,0,0-2.1l1.89.21a34.21,34.21,0,0,1-.48,4.42,27.58,27.58,0,0,1,2.74,1.75Zm-12.35-4.79c-3.27.28-5.14,2.24-5.14,4.17a1.39,1.39,0,0,0,1.31,1.52,1.61,1.61,0,0,0,1.38-.81A28.19,28.19,0,0,0,144.46,26.51Z"/></g></g></g></g></svg>