<svg xmlns="http://www.w3.org/2000/svg" viewBox="0 0 99.17 27.25"><defs><style>.cls-1{fill:#231f20;}.cls-2{fill:#fff;}</style></defs><title>applu_button</title><g id="Layer_2" data-name="Layer 2"><g id="レイヤー_1" data-name="レイヤー 1"><g id="_Group_" data-name="&lt;Group&gt;"><rect id="_Rectangle_" data-name="&lt;Rectangle&gt;" class="cls-1" width="99.17" height="27.25" rx="11.08" ry="11.08"/><g id="_Group_2" data-name="&lt;Group&gt;"><path id="_Compound_Path_" data-name="&lt;Compound Path&gt;" class="cls-2" d="M23.22,13a8.41,8.41,0,0,1,2.48-.41c1.65,0,2.84.9,2.84,2.25s-.86,2.24-2.41,2.62a7.31,7.31,0,0,1-1.4.15l-.32-.9a6.5,6.5,0,0,0,1.33-.08c1-.18,1.9-.72,1.9-1.77s-.87-1.48-1.95-1.48a7.3,7.3,0,0,0-2.46.45c0,1,0,2,0,2.45,0,1.05-.4,1.38-1,1.38-.89,0-2.37-.86-2.37-1.88s1.18-1.91,2.48-2.47v-.64c0-.46,0-1,0-1.49l-.83,0a14.14,14.14,0,0,1-1.44-.06l0-.87a10.28,10.28,0,0,0,1.44.09c.26,0,.56,0,.87,0,0-.59,0-1.09,0-1.29a4.43,4.43,0,0,0-.07-.8h1c0,.21,0,.51-.06.78s0,.72,0,1.22a14.87,14.87,0,0,0,2.32-.46v.9a22.92,22.92,0,0,1-2.36.39c0,.54,0,1.08,0,1.53Zm-.79,3.16c0-.41,0-1.18,0-2-.92.43-1.59,1.08-1.59,1.59s.78,1,1.22,1C22.29,16.75,22.43,16.55,22.43,16.2Zm4.46-6.66a19.08,19.08,0,0,1,2.59,1.66l-.46.73a14.61,14.61,0,0,0-2.54-1.69Z"/><path id="_Compound_Path_2" data-name="&lt;Compound Path&gt;" class="cls-2" d="M41.17,9.33v6.41h-.86v-.6h-3.2v3.11h-.87V15.14h-3.1v.65H32.3V9.33h3.94V7.82h.87V9.33Zm-8,.81V11.8h3.1V10.14Zm3.1,4.18V12.59h-3.1v1.73Zm.87-4.18V11.8h3.2V10.14Zm3.2,4.18V12.59h-3.2v1.73Z"/><path id="_Compound_Path_3" data-name="&lt;Compound Path&gt;" class="cls-2" d="M46.39,8.52c-.06.37-.09.77-.11,1.13,0,1.28-.14,4-.14,5.65,0,1.25.8,1.68,1.85,1.68a4.73,4.73,0,0,0,4.07-2.35l.63.79A5.65,5.65,0,0,1,48,17.93c-1.62,0-2.75-.69-2.75-2.53,0-1.68.12-4.54.12-5.75a5.77,5.77,0,0,0-.1-1.14Z"/><path id="_Compound_Path_4" data-name="&lt;Compound Path&gt;" class="cls-2" d="M57.23,16a3.33,3.33,0,0,0,2.85,1.28c1.25,0,3.79,0,5.13-.08a3.91,3.91,0,0,0-.28.87c-1.25,0-3.59.07-4.85,0a4.08,4.08,0,0,1-3.24-1.35c-.55.48-1.12,1-1.73,1.46l-.46-.86A19.24,19.24,0,0,0,56.4,16v-2.9H54.81v-.8h2.43Zm-.36-5.53a7.9,7.9,0,0,0-1.95-1.81l.63-.51a8.69,8.69,0,0,1,2,1.76Zm4.76-2c.29,3.49,1.17,6.19,3.46,7.37a3.93,3.93,0,0,0-.68.64,6.94,6.94,0,0,1-3-4.63,8.18,8.18,0,0,1-3,4.63,5,5,0,0,0-.66-.63,7.47,7.47,0,0,0,3.09-5.18l.37.06c-.08-.47-.14-.95-.19-1.45H58.86V8.4Z"/><path id="_Compound_Path_5" data-name="&lt;Compound Path&gt;" class="cls-2" d="M77.17,15.54A11.49,11.49,0,0,0,76,14.65,5.39,5.39,0,0,1,73,18l-.75-.63a4.83,4.83,0,0,0,3-3.2,8.34,8.34,0,0,0-3.23-1,22.43,22.43,0,0,1-1.43,3,1.62,1.62,0,0,1-1.43.79,1.45,1.45,0,0,1-1.48-1.56c0-1.67,1.54-3,3.76-3,.41-.89.82-1.87,1.18-2.58-.45,0-1.82.09-2.35.13a7.15,7.15,0,0,0-.84.08l0-1a7.77,7.77,0,0,0,.86,0c.6,0,2.08-.08,2.56-.12a2.26,2.26,0,0,0,.55-.13l.58.47a1.87,1.87,0,0,0-.3.38c-.32.5-.8,1.66-1.28,2.72a9.3,9.3,0,0,1,3.08.9c0-.29.07-.57.09-.85a7.6,7.6,0,0,0,0-1l.94.1a17,17,0,0,1-.24,2.2,13.47,13.47,0,0,1,1.36.87ZM71,13.17c-1.62.14-2.55,1.11-2.55,2.07a.69.69,0,0,0,.65.75.8.8,0,0,0,.69-.4A14,14,0,0,0,71,13.17Z"/></g></g></g></g></svg>