<svg xmlns="http://www.w3.org/2000/svg" xmlns:xlink="http://www.w3.org/1999/xlink" viewBox="0 0 300.57 239.06"><defs><style>.cls-1{fill:url(#名称未設定グラデーション_14);}</style><linearGradient id="名称未設定グラデーション_14" y1="119.53" x2="300.57" y2="119.53" gradientUnits="userSpaceOnUse"><stop offset="0"/><stop offset="0.1" stop-color="#002533"/><stop offset="0.31" stop-color="#006e97"/><stop offset="0.46" stop-color="#009cd6"/><stop offset="0.53" stop-color="#00aeef"/><stop offset="1"/></linearGradient></defs><title>creative_brain</title><g id="Layer_2" data-name="Layer 2"><g id="レイヤー_1" data-name="レイヤー 1"><path id="_Compound_Path_" data-name="&lt;Compound Path&gt;" class="cls-1" d="M296.66,62.71,228.94,3.8A17.94,17.94,0,0,0,218,0l-57,2.89c-3.44.17-6.36.26-6.49.19s-.24-.07-.24,0-2.81.28-6.25.46L71.39,7.45C60.91,8,55.31,12,55.26,12.07L5,48a13.34,13.34,0,0,0-5,9.9l.91,44.73A16.19,16.19,0,0,0,5.76,113l33.12,28.85a33,33,0,0,0,10.75,5.8l97,27,2.13.62a22.22,22.22,0,0,1,8.31,5.45l1.83,1.82,55.29,55c2.44,2.43,5.19,1.7,6.1-1.62l9.42-34.21a16.19,16.19,0,0,1,6.75-9.69l47.1-33.76a16.92,16.92,0,0,0,6-9.84l11-75.48A12.83,12.83,0,0,0,296.66,62.71ZM138.79,12.88H139c1,0,4.77-.06,5.76,1.89,1.23,2.43-1.12,5-1.12,5h0L93.72,72.57c-1.28,1.35-5.15,4.12-9.31,3.35s-5.82-7.68-5.82-7.68L70,26.82c-.26-1.41-.81-5.29.71-7.63C72.34,16.67,76,16.11,77.57,16l.76,0h0l60.45-3.07ZM23.66,57.95h0l-.9-.42c-1.37-.71-3.83-2.37-4.06-5.16a6.15,6.15,0,0,1,2.56-5.13l30-21.48c.83-.58,4.08-2.65,6.71-1.67,2.27.85,3.11,3.54,3.35,4.57L69,65.57c.33,1.61,1.21,6.58-1.79,8.56-3.3,2.18-8.3.07-8.31.07Zm-14,40.62L9.41,85.64h0l0-.78c0-1.06.2-2.88,1.32-3.19C12.37,81.23,13.6,84,13.6,84h0l14.68,31.24h0l.1.21c.35.76,1.51,3.47.41,4.09s-2.51-.38-3.13-.88l-.32-.28h0l-10.83-9.43A16.2,16.2,0,0,1,9.67,98.56Zm37.22,29c-3.45-.34-5.22-4.62-5.55-5.32l-.06-.13h0L18.39,73.4h0s-1.58-3.7.12-5.5c1.55-1.65,5.15-.23,5.15-.22l39,18s5.42,2.52,6.63,7.76c1.09,4.7-1,8.78-2.79,11.76l-13,18.29S50.7,127.91,46.89,127.54Zm78.8,32.17-62.3-17.38c-9.5-2.65-6-8.9-5-10.48l17-23.87a8.89,8.89,0,0,1,6.08-3.43c4.57-.27,8.29,3.79,9.09,4.66L131,153.3h0l.18.19C132.43,154.91,139.92,163.68,125.69,159.71Zm28.1-10.79c-.41,15.59-11,4.2-11,4.16L95.89,102c-1.44-1.57-4.23-5-4.13-9.56a13.88,13.88,0,0,1,3.38-8.46L147.08,29c.58-.59,2.93-2.8,5-1.74,1.56.79,1.94,2.68,2,3.91ZM175.66,12.58c.5-1.33,2.27-1.65,3.14-1.73l.5,0h0l33.8-1.71A7.5,7.5,0,0,1,221,14.83L225.77,32h0l.41,1.49c.42,1.69.66,3.9-1.1,5.08-2.35,1.59-6.17-.52-6.17-.52L177.13,15.41C176.69,15.17,175.08,14.13,175.66,12.58ZM163,30.4h0s-.15-5.24,2.73-7.38,7.33.21,7.33.21L216.3,46.73h0l.62.33c1.29.75,4.17,2.7,4.23,5.3.1,3.88-4.31,6.5-4.31,6.5l-37.68,23h0c-1.12.68-7.57,4-12.42,1.29-3.35-1.88-3.84-7.38-3.91-9.48ZM166.29,159c-3.2-1.57-3.63-6.81-3.67-8.9l.09-33.08h0s0-.1,0-.24v-.35c0-1.83.34-7.43,3.45-9.13,3.93-2.16,10.11.77,10.11.78l40,22.14h0l.5.28c1.06.63,3.45,2.37,3.42,5.1a6.05,6.05,0,0,1-3.48,5.45l-.43.19h0l-38,16.8S170.79,161.17,166.29,159Zm54.93,40.27-5.46,19.83c-.91,3.32-3.66,4-6.1,1.62l-31.23-31.07s-3.54-3.55-2.16-5.47c1.08-1.5,3.9-1.1,5.16-.83l35.37,8.43A6,6,0,0,1,221.22,199.23Zm7.08-41.94-3.63,17s-1,4.68-3.9,6.44c-3.26,2-8.73.75-8.73.75l-29.15-6.95c-12.25-3.32-1.43-8.34-.43-8.79l.08,0h0l37.24-16.47h0s4.44-1.93,7,.7S228.59,155.92,228.3,157.29Zm.86-33.88c-3.4,1.72-8.38-.82-8.38-.82l-34.38-19h0l-.91-.51c-1.53-.95-4.48-3.24-4.69-7-.23-4,3.41-6.84,4.94-7.84L220,67.28h0l.35-.21c1.2-.71,5.31-2.89,8.21-1.37,3.19,1.67,3.26,6.56,3.28,8.05l.61,42C232.51,117.61,232.56,121.69,229.16,123.41ZM233.4,21c1.11-.49,2.37.47,2.75.79l36.84,32s2.07,1.93,1.34,3-2.67.48-2.67.48l-21.38-5.71c-1-.28-6.45-2-9.34-5a19.14,19.14,0,0,1-4-7.39l-.06-.23h0l-4.14-15S232,21.59,233.4,21Zm11.16,60.48,25,54c1.45,3.13-.1,5-3.44,4.12l-14.4-3.71a16.89,16.89,0,0,1-7.79-4.49c-2-2.22-2.41-6.2-2.5-8.32l-.59-40.7c0-.63.07-2.88,1.28-3C243.51,79.2,244.55,81.46,244.56,81.47Zm26.28,75.1-.5.36h0L241.63,177.5h0l-.07,0c-.5.36-3.82,2.6-6.07,1.14-2-1.27-1.87-3.67-1.67-4.9L238.67,151a9.22,9.22,0,0,1,4-5.66c2.52-1.46,5.68-1.2,8.23-.54l18.56,4.78h0l.13,0c.56.15,2.71.85,3.18,2.73S271.7,155.9,270.84,156.57Zm20-78.54-7.89,54.3c-.13.75-.58,2.47-2,2.72-1.79.32-2.89-2.16-2.89-2.16L248.82,69.62c-.45-1-1.53-4,0-6.56,1.19-2,4-1.58,5.17-1.3l.55.15h0l31.14,8.31A7.23,7.23,0,0,1,290.83,78Z"/></g></g></svg>