<svg xmlns="http://www.w3.org/2000/svg" xmlns:xlink="http://www.w3.org/1999/xlink" viewBox="0 0 691.54 57.59"><defs><style>.cls-1{fill:url(#名称未設定グラデーション_9);}.cls-2{fill:url(#名称未設定グラデーション_9-2);}.cls-3{fill:url(#名称未設定グラデーション_9-4);}.cls-4{fill:url(#名称未設定グラデーション_9-5);}.cls-5{fill:url(#名称未設定グラデーション_9-7);}.cls-6{fill:url(#名称未設定グラデーション_9-8);}.cls-7{fill:url(#名称未設定グラデーション_9-9);}.cls-8{fill:url(#名称未設定グラデーション_9-10);}.cls-9{fill:url(#名称未設定グラデーション_9-11);}.cls-10{fill:url(#名称未設定グラデーション_9-12);}.cls-11{fill:url(#名称未設定グラデーション_9-13);}.cls-12{fill:url(#名称未設定グラデーション_9-14);}</style><linearGradient id="名称未設定グラデーション_9" x1="1.03" y1="28.66" x2="692.18" y2="28.66" gradientUnits="userSpaceOnUse"><stop offset="0"/><stop offset="0.69" stop-color="#00aeef"/><stop offset="1"/></linearGradient><linearGradient id="名称未設定グラデーション_9-2" x1="-0.86" y1="28.77" x2="690.29" y2="28.77" xlink:href="#名称未設定グラデーション_9"/><linearGradient id="名称未設定グラデーション_9-4" x1="1.98" y1="28.66" x2="693.12" y2="28.66" xlink:href="#名称未設定グラデーション_9"/><linearGradient id="名称未設定グラデーション_9-5" x1="1.98" y1="28.77" x2="693.12" y2="28.77" xlink:href="#名称未設定グラデーション_9"/><linearGradient id="名称未設定グラデーション_9-7" x1="2.92" y1="28.55" x2="694.07" y2="28.55" xlink:href="#名称未設定グラデーション_9"/><linearGradient id="名称未設定グラデーション_9-8" x1="2.92" y1="28.77" x2="694.07" y2="28.77" xlink:href="#名称未設定グラデーション_9"/><linearGradient id="名称未設定グラデーション_9-9" x1="-0.86" y1="28.77" x2="690.29" y2="28.77" xlink:href="#名称未設定グラデーション_9"/><linearGradient id="名称未設定グラデーション_9-10" x1="-0.86" y1="28.66" x2="690.29" y2="28.66" xlink:href="#名称未設定グラデーション_9"/><linearGradient id="名称未設定グラデーション_9-11" x1="-0.86" y1="28.76" x2="690.29" y2="28.76" xlink:href="#名称未設定グラデーション_9"/><linearGradient id="名称未設定グラデーション_9-12" x1="-0.86" y1="28.91" x2="690.29" y2="28.91" xlink:href="#名称未設定グラデーション_9"/><linearGradient id="名称未設定グラデーション_9-13" x1="-0.86" y1="28.58" x2="690.29" y2="28.58" xlink:href="#名称未設定グラデーション_9"/><linearGradient id="名称未設定グラデーション_9-14" x1="1.98" y1="28.76" x2="693.12" y2="28.76" xlink:href="#名称未設定グラデーション_9"/></defs><title>creative_brain_logo</title><g id="Layer_2" data-name="Layer 2"><g id="レイヤー_1" data-name="レイヤー 1"><g id="_Group_" data-name="&lt;Group&gt;"><rect id="_Path_" data-name="&lt;Path&gt;" class="cls-1" x="290.44" y="0.23" width="5.02" height="56.86" rx="0.96" ry="0.96"/><path id="_Path_2" data-name="&lt;Path&gt;" class="cls-2" d="M410.31,3.7V1.36A1.34,1.34,0,0,0,409,0H375.39a1.34,1.34,0,0,0-1.34,1.34V56.18a1.34,1.34,0,0,0,1.34,1.34H409a1.34,1.34,0,0,0,1.34-1.34V53.83A1.34,1.34,0,0,0,409,52.49H380.41a1.34,1.34,0,0,1-1.34-1.34V6.38A1.34,1.34,0,0,1,380.41,5H409A1.34,1.34,0,0,0,410.31,3.7Z"/><rect id="_Path_3" data-name="&lt;Path&gt;" class="cls-2" x="386.59" y="26.25" width="22.44" height="5.02" rx="1.34" ry="1.34"/><path id="_Path_4" data-name="&lt;Path&gt;" class="cls-3" d="M51.48,43.19h-3a2.32,2.32,0,0,0-1.84.77h0A23.61,23.61,0,1,1,28.64,5a23.45,23.45,0,0,1,17.87,8.22h0A1.94,1.94,0,0,0,48,13.9h3.63c1.24,0,1-.74.91-1a28.64,28.64,0,1,0-.16,31.78C52.52,44.4,53.12,43.19,51.48,43.19Z"/><path id="_Path_5" data-name="&lt;Path&gt;" class="cls-4" d="M165.26,3.44V1.5c0-1.2-.74-1.44-1.17-1.48H130.42A1.58,1.58,0,0,0,129,1.81V56s0,1.51,1.39,1.51h33.42c1.21,0,1.42-.77,1.44-1.16V54a1.41,1.41,0,0,0-1.47-1.52H134.87c-.78,0-.84-.88-.84-.88V5.85a.76.76,0,0,1,.8-.82h28.79A1.66,1.66,0,0,0,165.26,3.44Z"/><path id="_Path_6" data-name="&lt;Path&gt;" class="cls-4" d="M162.49,26.25H142.92a1.4,1.4,0,0,0-1.38,1.48V30a1.22,1.22,0,0,0,1.38,1.25h19.57A1.42,1.42,0,0,0,164,29.94v-2.2a1.34,1.34,0,0,0-1.35-1.48Z"/><path id="_Path_7" data-name="&lt;Path&gt;" class="cls-5" d="M273.59,0H236.3s-1.08,0-1.08,1V3.89A1.19,1.19,0,0,0,236.4,5h15.25a.83.83,0,0,1,.82.92V56a1,1,0,0,0,1,1.06h3.13c.87,0,.86-1.15.86-1.15V5.9a.86.86,0,0,1,1-.86h15a1.19,1.19,0,0,0,1.3-1.15V1.19A1.16,1.16,0,0,0,273.59,0Z"/><path id="_Path_8" data-name="&lt;Path&gt;" class="cls-6" d="M228.74,56.38,207.74.92a1.5,1.5,0,0,0-1.43-.9h-4.94a1.48,1.48,0,0,0-1.42.9h0l-18.74,55.4h0s-.37,1.2.88,1.2h3a1.56,1.56,0,0,0,1.42-1.12l2.22-6.56.23-.68,0-.08h0a.88.88,0,0,1,.89-.59H211c1.44,0,1.15-1.23,1.15-1.23l-1.12-2.95a1.56,1.56,0,0,0-1.45-.84h-17.9c-.83,0-.57-.82-.57-.82l.18-.53L203.13,7.2h0l.09-.27c.22-.57.8-1.68,1.54.27l18.7,49.39h0a1.8,1.8,0,0,0,1.38.92h3.1C229.07,57.52,228.83,56.62,228.74,56.38Z"/><path id="_Path_9" data-name="&lt;Path&gt;" class="cls-7" d="M607.73,56.38,586.73.92A1.5,1.5,0,0,0,585.3,0h-4.94a1.48,1.48,0,0,0-1.42.9h0L560.2,56.31h0s-.37,1.2.88,1.2h3a1.56,1.56,0,0,0,1.42-1.12l2.22-6.56.23-.68,0-.08h0a.88.88,0,0,1,.89-.59H590c1.44,0,1.15-1.23,1.15-1.23L590,44.31a1.56,1.56,0,0,0-1.45-.84h-17.9c-.83,0-.57-.82-.57-.82l.18-.53L582.11,7.2h0l.09-.27c.22-.57.8-1.68,1.54.27l18.7,49.39h0a1.8,1.8,0,0,0,1.38.92h3.1C608.05,57.52,607.81,56.62,607.73,56.38Z"/><rect id="_Path_10" data-name="&lt;Path&gt;" class="cls-8" x="626.28" y="0.23" width="5.02" height="56.86" rx="0.96" ry="0.96"/><path id="_Path_11" data-name="&lt;Path&gt;" class="cls-9" d="M530.5,42.46h0c-.88-.77-.09-1,.14-1.09l.19,0a28.45,28.45,0,0,0,5.44-1.81C541.61,37.08,548,31.89,548,21c0-6.17-2-11.14-5.8-14.77C535.25-.29,524.54,0,523.34,0h-16a1.36,1.36,0,0,0-1.42,1.45V56a1.47,1.47,0,0,0,1.49,1.51h2.28c1.3,0,1.26-1.51,1.26-1.51V6.11a1,1,0,0,1,1-1.07h11.63c.08,0,9.58-.42,15.17,4.86C541.57,12.58,543,16.22,543,21c0,6.62-2.81,11.15-8.6,13.85A25.69,25.69,0,0,1,525.52,37h0a1.82,1.82,0,0,0-1.73,2v2.75a4,4,0,0,0,1.52,2.86l13.74,12h0l.15.13a3.6,3.6,0,0,0,2.23.8h3.46c2.59,0,.86-1.74.85-1.74Z"/><path id="_Path_12" data-name="&lt;Path&gt;" class="cls-10" d="M690.58.3h-3.11a1,1,0,0,0-1,1V43.93c0,.53-.28.63-.61.22L671.66,25,653.94.74A1.33,1.33,0,0,0,652.49.3c-.65.22-.71,1-.71,1.22v55a1,1,0,0,0,1,1h3.11a1,1,0,0,0,1-1V13.88c0-.53.28-.63.61-.22l14.24,19.59,17.72,23.83a1.32,1.32,0,0,0,1.45.44c.65-.22.71-1,.71-1.22v-55A1,1,0,0,0,690.58.3Z"/><path id="_Path_13" data-name="&lt;Path&gt;" class="cls-11" d="M487.53,31.32a18.76,18.76,0,0,0-6.88-4.14l-.2-.07h0c-1.1-.42-.08-1-.08-1l.15-.09a12.27,12.27,0,0,0,6-9.46c.56-4.93-.66-8.85-3.47-11.8C478.52,0,469.87,0,468.85,0H451a1.15,1.15,0,0,0-1.1,1.3v54.9s0,.89.8.89H454c.77,0,.86-.89.86-.89V5.05h14.35s6.85,0,10.23,3.22c1.81,1.75,2.44,4.31,2.06,7.7-.43,3.81-3.05,5.78-5.77,6.79h0l0,0a1.76,1.76,0,0,0-1.15,1.64v4.94A1.68,1.68,0,0,0,475.74,31h0c3,.68,6.19,1.88,8.26,3.93a7.54,7.54,0,0,1,2.28,5.62c0,7.91-6.43,11.6-20.22,11.6h-4.24a.91.91,0,0,0-.92,1V56.3a.85.85,0,0,0,.84.82H466c4.16,0,10.28-.25,15.47-2.38,6.4-2.63,9.78-7.56,9.78-14.24A12.5,12.5,0,0,0,487.53,31.32Z"/><path id="_Path_14" data-name="&lt;Path&gt;" class="cls-12" d="M93.92,42.46h0c-.88-.77-.09-1,.14-1.09l.19,0a28.45,28.45,0,0,0,5.44-1.81c5.34-2.43,11.71-7.61,11.71-18.5,0-6.17-2-11.14-5.8-14.77C98.67-.29,88,0,86.76,0h-16a1.36,1.36,0,0,0-1.42,1.45V56a1.47,1.47,0,0,0,1.49,1.51h2.28c1.3,0,1.26-1.51,1.26-1.51V6.11a1,1,0,0,1,1-1.07H87c.08,0,9.58-.42,15.17,4.86,2.84,2.69,4.23,6.32,4.23,11.12,0,6.62-2.81,11.15-8.6,13.85A25.69,25.69,0,0,1,88.93,37h0a1.82,1.82,0,0,0-1.73,2v2.75a4,4,0,0,0,1.52,2.86l13.74,12h0l.15.13a3.6,3.6,0,0,0,2.23.8h3.46c2.59,0,.86-1.74.85-1.74Z"/><path id="_Path_15" data-name="&lt;Path&gt;" class="cls-7" d="M358.74,0h-3.11a1.43,1.43,0,0,0-1.26.91L337.62,50.43c-.7,2.08-1.45.26-1.54,0L317.32.91A1.5,1.5,0,0,0,316,0h-3.13c-1.32,0-.82,1.24-.82,1.24h0l21,55.36a1.5,1.5,0,0,0,1.3.9h5.23a1.43,1.43,0,0,0,1.26-.91L359.58,1.18C359.66.93,359.88,0,358.74,0Z"/></g></g></g></svg>