<svg xmlns="http://www.w3.org/2000/svg" xmlns:xlink="http://www.w3.org/1999/xlink" viewBox="0 0 210.43 17.52"><defs><style>.cls-1{fill:url(#名称未設定グラデーション_9);}.cls-2{fill:url(#名称未設定グラデーション_9-2);}.cls-3{fill:url(#名称未設定グラデーション_9-4);}.cls-4{fill:url(#名称未設定グラデーション_9-5);}.cls-5{fill:url(#名称未設定グラデーション_9-7);}.cls-6{fill:url(#名称未設定グラデーション_9-8);}.cls-7{fill:url(#名称未設定グラデーション_9-9);}.cls-8{fill:url(#名称未設定グラデーション_9-10);}.cls-9{fill:url(#名称未設定グラデーション_9-11);}.cls-10{fill:url(#名称未設定グラデーション_9-12);}.cls-11{fill:url(#名称未設定グラデーション_9-13);}.cls-12{fill:url(#名称未設定グラデーション_9-14);}</style><linearGradient id="名称未設定グラデーション_9" x1="0.31" y1="8.72" x2="210.63" y2="8.72" gradientUnits="userSpaceOnUse"><stop offset="0"/><stop offset="0.69" stop-color="#00aeef"/><stop offset="1"/></linearGradient><linearGradient id="名称未設定グラデーション_9-2" x1="-0.26" y1="8.75" x2="210.05" y2="8.75" xlink:href="#名称未設定グラデーション_9"/><linearGradient id="名称未設定グラデーション_9-4" x1="0.6" y1="8.72" x2="210.92" y2="8.72" xlink:href="#名称未設定グラデーション_9"/><linearGradient id="名称未設定グラデーション_9-5" x1="0.6" y1="8.75" x2="210.92" y2="8.75" xlink:href="#名称未設定グラデーション_9"/><linearGradient id="名称未設定グラデーション_9-7" x1="0.89" y1="8.69" x2="211.2" y2="8.69" xlink:href="#名称未設定グラデーション_9"/><linearGradient id="名称未設定グラデーション_9-8" x1="0.89" y1="8.75" x2="211.2" y2="8.75" xlink:href="#名称未設定グラデーション_9"/><linearGradient id="名称未設定グラデーション_9-9" x1="-0.26" y1="8.75" x2="210.05" y2="8.75" xlink:href="#名称未設定グラデーション_9"/><linearGradient id="名称未設定グラデーション_9-10" x1="-0.26" y1="8.72" x2="210.05" y2="8.72" xlink:href="#名称未設定グラデーション_9"/><linearGradient id="名称未設定グラデーション_9-11" x1="-0.26" y1="8.75" x2="210.05" y2="8.75" xlink:href="#名称未設定グラデーション_9"/><linearGradient id="名称未設定グラデーション_9-12" x1="-0.26" y1="8.8" x2="210.05" y2="8.8" xlink:href="#名称未設定グラデーション_9"/><linearGradient id="名称未設定グラデーション_9-13" x1="-0.26" y1="8.7" x2="210.05" y2="8.7" xlink:href="#名称未設定グラデーション_9"/><linearGradient id="名称未設定グラデーション_9-14" x1="0.6" y1="8.75" x2="210.92" y2="8.75" xlink:href="#名称未設定グラデーション_9"/></defs><title>creative_brain_logo_small</title><g id="Layer_2" data-name="Layer 2"><g id="レイヤー_1" data-name="レイヤー 1"><g id="_Group_" data-name="&lt;Group&gt;"><rect id="_Path_" data-name="&lt;Path&gt;" class="cls-1" x="88.38" y="0.07" width="1.53" height="17.3" rx="0.29" ry="0.29"/><path id="_Path_2" data-name="&lt;Path&gt;" class="cls-2" d="M124.85,1.13V.41a.41.41,0,0,0-.41-.41H114.23a.41.41,0,0,0-.41.41V17.09a.41.41,0,0,0,.41.41h10.22a.41.41,0,0,0,.41-.41v-.71a.41.41,0,0,0-.41-.41h-8.69a.41.41,0,0,1-.41-.41V1.94a.41.41,0,0,1,.41-.41h8.69A.41.41,0,0,0,124.85,1.13Z"/><rect id="_Path_3" data-name="&lt;Path&gt;" class="cls-2" x="117.64" y="7.99" width="6.83" height="1.53" rx="0.41" ry="0.41"/><path id="_Path_4" data-name="&lt;Path&gt;" class="cls-3" d="M15.66,13.14h-.92a.7.7,0,0,0-.56.23h0A7.19,7.19,0,1,1,8.72,1.53,7.14,7.14,0,0,1,14.15,4h0a.59.59,0,0,0,.45.2h1.11c.38,0,.31-.22.28-.31a8.71,8.71,0,1,0,0,9.67C16,13.51,16.17,13.14,15.66,13.14Z"/><path id="_Path_5" data-name="&lt;Path&gt;" class="cls-4" d="M50.29,1V.46c0-.36-.22-.44-.36-.45H39.69a.48.48,0,0,0-.43.54V17s0,.46.42.46H49.85c.37,0,.43-.23.44-.35v-.72a.43.43,0,0,0-.45-.46H41c-.24,0-.26-.27-.26-.27V1.78A.23.23,0,0,1,41,1.53h8.76A.51.51,0,0,0,50.29,1Z"/><path id="_Path_6" data-name="&lt;Path&gt;" class="cls-4" d="M49.45,8h-6a.43.43,0,0,0-.42.45v.7a.37.37,0,0,0,.42.38h6a.43.43,0,0,0,.45-.41V8.44A.41.41,0,0,0,49.49,8Z"/><path id="_Path_7" data-name="&lt;Path&gt;" class="cls-5" d="M83.25,0H71.91s-.33,0-.33.32v.86a.36.36,0,0,0,.36.35h4.64a.25.25,0,0,1,.25.28V17a.32.32,0,0,0,.32.32h1c.26,0,.26-.35.26-.35V1.79a.26.26,0,0,1,.3-.26h4.56a.36.36,0,0,0,.4-.35V.36A.35.35,0,0,0,83.25,0Z"/><path id="_Path_8" data-name="&lt;Path&gt;" class="cls-6" d="M69.61,17.16,63.22.28A.46.46,0,0,0,62.78,0h-1.5a.45.45,0,0,0-.43.27h0l-5.7,16.86h0s-.11.37.27.37h.91a.48.48,0,0,0,.43-.34l.67-2,.07-.21v0h0a.27.27,0,0,1,.27-.18h6.44c.44,0,.35-.38.35-.38l-.34-.9a.48.48,0,0,0-.44-.26H58.34c-.25,0-.17-.25-.17-.25l.05-.16L61.81,2.19h0l0-.08c.07-.17.24-.51.47.08l5.69,15h0a.55.55,0,0,0,.42.28h.94C69.7,17.5,69.63,17.23,69.61,17.16Z"/><path id="_Path_9" data-name="&lt;Path&gt;" class="cls-7" d="M184.93,17.16,178.54.28A.46.46,0,0,0,178.1,0h-1.5a.45.45,0,0,0-.43.27h0l-5.7,16.86h0s-.11.37.27.37h.91a.48.48,0,0,0,.43-.34l.67-2,.07-.21v0h0a.27.27,0,0,1,.27-.18h6.44c.44,0,.35-.38.35-.38l-.34-.9a.48.48,0,0,0-.44-.26h-5.45c-.25,0-.17-.25-.17-.25l.05-.16,3.59-10.62h0l0-.08c.07-.17.24-.51.47.08l5.69,15h0a.55.55,0,0,0,.42.28h.94C185,17.5,185,17.23,184.93,17.16Z"/><rect id="_Path_10" data-name="&lt;Path&gt;" class="cls-8" x="190.58" y="0.07" width="1.53" height="17.3" rx="0.29" ry="0.29"/><path id="_Path_11" data-name="&lt;Path&gt;" class="cls-9" d="M161.43,12.92h0c-.27-.23,0-.32,0-.33h.06a8.66,8.66,0,0,0,1.66-.55,5.8,5.8,0,0,0,3.56-5.63A5.91,5.91,0,0,0,165,1.9,8.53,8.53,0,0,0,159.25,0h-4.88a.41.41,0,0,0-.43.44V17a.45.45,0,0,0,.45.46h.69c.39,0,.38-.46.38-.46V1.86a.3.3,0,0,1,.3-.33h3.54s2.91-.13,4.62,1.48a4.39,4.39,0,0,1,1.29,3.38,4.26,4.26,0,0,1-2.62,4.21,7.82,7.82,0,0,1-2.69.66h0a.55.55,0,0,0-.53.59v.84a1.22,1.22,0,0,0,.46.87L164,17.22h0l0,0a1.09,1.09,0,0,0,.68.24h1.05c.79,0,.26-.53.26-.53Z"/><path id="_Path_12" data-name="&lt;Path&gt;" class="cls-10" d="M210.14.09h-.95a.29.29,0,0,0-.29.29v13c0,.16-.08.19-.19.07L204.38,7.6,199,.22a.4.4,0,0,0-.44-.13c-.2.07-.22.31-.22.37h0V17.21a.29.29,0,0,0,.29.29h.95a.29.29,0,0,0,.29-.29v-13c0-.16.08-.19.19-.07l4.33,6,5.39,7.25a.4.4,0,0,0,.44.13c.2-.07.22-.31.22-.37h0V.38A.29.29,0,0,0,210.14.09Z"/><path id="_Path_13" data-name="&lt;Path&gt;" class="cls-11" d="M148.36,9.53a5.71,5.71,0,0,0-2.09-1.26l-.06,0h0c-.34-.13,0-.32,0-.32l0,0A3.73,3.73,0,0,0,148,5,4.25,4.25,0,0,0,147,1.44C145.61,0,143,0,142.67,0h-5.45a.35.35,0,0,0-.34.4V17.11s0,.27.24.27h1c.24,0,.26-.27.26-.27V1.54h4.37a5.18,5.18,0,0,1,3.11,1,2.66,2.66,0,0,1,.63,2.34,2.46,2.46,0,0,1-1.76,2.07h0a.54.54,0,0,0-.35.5v1.5a.51.51,0,0,0,.37.49h0a5.26,5.26,0,0,1,2.51,1.2,2.29,2.29,0,0,1,.69,1.71c0,2.41-2,3.53-6.15,3.53h-1.29a.28.28,0,0,0-.28.29v1a.26.26,0,0,0,.25.25h1.32a12.78,12.78,0,0,0,4.71-.72,4.43,4.43,0,0,0,3-4.33A3.8,3.8,0,0,0,148.36,9.53Z"/><path id="_Path_14" data-name="&lt;Path&gt;" class="cls-12" d="M28.58,12.92h0c-.27-.23,0-.32,0-.33h.06A8.66,8.66,0,0,0,30.33,12,5.8,5.8,0,0,0,33.9,6.39,5.91,5.91,0,0,0,32.13,1.9,8.53,8.53,0,0,0,26.4,0H21.52a.41.41,0,0,0-.43.44V17a.45.45,0,0,0,.45.46h.69c.39,0,.38-.46.38-.46V1.86a.3.3,0,0,1,.3-.33h3.54S29.38,1.4,31.08,3a4.39,4.39,0,0,1,1.29,3.38,4.26,4.26,0,0,1-2.62,4.21,7.82,7.82,0,0,1-2.69.66h0a.55.55,0,0,0-.53.59v.84a1.22,1.22,0,0,0,.46.87l4.18,3.65h0l0,0a1.09,1.09,0,0,0,.68.24H33c.79,0,.26-.53.26-.53Z"/><path id="_Path_15" data-name="&lt;Path&gt;" class="cls-7" d="M109.16,0h-.95a.44.44,0,0,0-.38.28l-5.1,15.07c-.21.63-.44.08-.47,0L96.56.28A.46.46,0,0,0,96.16,0h-1c-.4,0-.25.38-.25.38h0l6.38,16.85a.46.46,0,0,0,.39.27h1.59a.44.44,0,0,0,.38-.28L109.42.36C109.44.28,109.51,0,109.16,0Z"/></g></g></g></svg>