<svg xmlns="http://www.w3.org/2000/svg" xmlns:xlink="http://www.w3.org/1999/xlink" viewBox="0 0 443.05 465.81"><defs><style>.cls-1{fill:url(#名称未設定グラデーション_9);}.cls-2{fill:url(#名称未設定グラデーション_9-2);}.cls-3{fill:url(#名称未設定グラデーション_9-3);}.cls-4{fill:url(#名称未設定グラデーション_9-4);}.cls-5{fill:url(#名称未設定グラデーション_9-5);}.cls-6{fill:url(#名称未設定グラデーション_9-6);}.cls-7{fill:url(#名称未設定グラデーション_9-7);}.cls-8{fill:url(#名称未設定グラデーション_9-9);}.cls-9{fill:url(#名称未設定グラデーション_9-12);}.cls-10{fill:url(#名称未設定グラデーション_9-13);}.cls-11{fill:url(#名称未設定グラデーション_9-14);}.cls-12{fill:url(#名称未設定グラデーション_14);}</style><linearGradient id="名称未設定グラデーション_9" x1="3.2" y1="434.69" x2="447.17" y2="434.69" gradientUnits="userSpaceOnUse"><stop offset="0"/><stop offset="0.69" stop-color="#00aeef"/><stop offset="1"/></linearGradient><linearGradient id="名称未設定グラデーション_9-2" x1="3.2" y1="434.58" x2="447.17" y2="434.58" xlink:href="#名称未設定グラデーション_9"/><linearGradient id="名称未設定グラデーション_9-3" x1="3.2" y1="434.68" x2="447.17" y2="434.68" xlink:href="#名称未設定グラデーション_9"/><linearGradient id="名称未設定グラデーション_9-4" x1="3.2" y1="434.85" x2="447.17" y2="434.85" xlink:href="#名称未設定グラデーション_9"/><linearGradient id="名称未設定グラデーション_9-5" x1="3.2" y1="434.49" x2="447.17" y2="434.49" xlink:href="#名称未設定グラデーション_9"/><linearGradient id="名称未設定グラデーション_9-6" x1="3.2" y1="327.68" x2="447.17" y2="327.68" xlink:href="#名称未設定グラデーション_9"/><linearGradient id="名称未設定グラデーション_9-7" x1="3.2" y1="327.79" x2="447.17" y2="327.79" xlink:href="#名称未設定グラデーション_9"/><linearGradient id="名称未設定グラデーション_9-9" x1="3.2" y1="327.68" x2="447.17" y2="327.68" xlink:href="#名称未設定グラデーション_9"/><linearGradient id="名称未設定グラデーション_9-12" x1="3.2" y1="327.56" x2="447.17" y2="327.56" xlink:href="#名称未設定グラデーション_9"/><linearGradient id="名称未設定グラデーション_9-13" x1="3.2" y1="327.79" x2="447.17" y2="327.79" xlink:href="#名称未設定グラデーション_9"/><linearGradient id="名称未設定グラデーション_9-14" x1="3.2" y1="327.78" x2="447.17" y2="327.78" xlink:href="#名称未設定グラデーション_9"/><linearGradient id="名称未設定グラデーション_14" x1="65.97" y1="123.72" x2="377.08" y2="123.72" gradientUnits="userSpaceOnUse"><stop offset="0"/><stop offset="0.1" stop-color="#002533"/><stop offset="0.31" stop-color="#006e97"/><stop offset="0.46" stop-color="#009cd6"/><stop offset="0.53" stop-color="#00aeef"/><stop offset="1"/></linearGradient></defs><title>creative_brain_small</title><g id="Layer_2" data-name="Layer 2"><g id="レイヤー_1" data-name="レイヤー 1"><g id="_Group_" data-name="&lt;Group&gt;"><g id="_Group_2" data-name="&lt;Group&gt;"><g id="_Group_3" data-name="&lt;Group&gt;"><path id="_Path_" data-name="&lt;Path&gt;" class="cls-1" d="M261.51,464.51l-22.68-59.88a1.62,1.62,0,0,0-1.54-1H232a1.6,1.6,0,0,0-1.53,1h0l-20.23,59.82h0s-.4,1.3.95,1.3h3.22a1.69,1.69,0,0,0,1.53-1.21l2.39-7.08.25-.73,0-.09h0a1,1,0,0,1,1-.64h22.86c1.55,0,1.24-1.33,1.24-1.33l-1.2-3.18a1.69,1.69,0,0,0-1.56-.91H221.52c-.9,0-.61-.89-.61-.89l.19-.57,12.75-37.69h0l.1-.29c.23-.61.86-1.82,1.66.29l20.2,53.33h0a2,2,0,0,0,1.49,1h3.35C261.86,465.74,261.61,464.77,261.51,464.51Z"/><rect id="_Path_2" data-name="&lt;Path&gt;" class="cls-2" x="281.55" y="403.88" width="5.42" height="61.4" rx="1.03" ry="1.03"/><path id="_Path_3" data-name="&lt;Path&gt;" class="cls-3" d="M178.12,449.48h0c-1-.83-.09-1.12.15-1.18l.21,0a30.72,30.72,0,0,0,5.88-2c5.77-2.62,12.64-8.22,12.64-20,0-6.66-2.11-12-6.27-15.95-7.48-7.06-19-6.78-20.34-6.72h-17.3a1.47,1.47,0,0,0-1.53,1.57v58.89a1.58,1.58,0,0,0,1.61,1.63h2.46c1.4,0,1.36-1.63,1.36-1.63V410.23a1.07,1.07,0,0,1,1.08-1.16h12.56c.09,0,10.34-.46,16.38,5.25,3.07,2.9,4.57,6.83,4.57,12,0,7.15-3,12-9.28,15a27.74,27.74,0,0,1-9.54,2.35h0a2,2,0,0,0-1.87,2.11v3a4.32,4.32,0,0,0,1.64,3.09l14.83,13h0l.16.14a3.88,3.88,0,0,0,2.41.86h3.74c2.8,0,.92-1.88.92-1.88Z"/><path id="_Path_4" data-name="&lt;Path&gt;" class="cls-4" d="M351,404h-3.35a1,1,0,0,0-1,1v46.08c0,.57-.3.68-.66.24l-15.38-20.7-19.13-26.18a1.43,1.43,0,0,0-1.57-.47c-.71.24-.77,1.1-.77,1.31V464.7a1,1,0,0,0,1,1h3.35a1,1,0,0,0,1-1V418.62c0-.57.3-.68.66-.24l15.38,21.16,19.13,25.73a1.43,1.43,0,0,0,1.57.47c.71-.24.77-1.1.77-1.31V405A1,1,0,0,0,351,404Z"/><path id="_Path_5" data-name="&lt;Path&gt;" class="cls-5" d="M131.73,437.45A20.26,20.26,0,0,0,124.3,433l-.21-.08h0c-1.19-.46-.09-1.12-.08-1.13l.16-.1a13.24,13.24,0,0,0,6.44-10.21c.6-5.32-.71-9.56-3.75-12.74-4.86-5.08-14.21-5.08-15.31-5.08H92.23A1.24,1.24,0,0,0,91,405.07v59.28s0,1,.86,1h3.63c.84,0,.93-1,.93-1V409.09l15.49,0s7.4-.05,11.05,3.48c2,1.89,2.63,4.65,2.22,8.32-.46,4.12-3.3,6.24-6.23,7.33h0l0,0a1.9,1.9,0,0,0-1.24,1.77v5.34a1.82,1.82,0,0,0,1.31,1.72h0c3.24.73,6.69,2,8.92,4.25a8.14,8.14,0,0,1,2.46,6.07c0,8.55-6.94,12.53-21.84,12.53H104a1,1,0,0,0-1,1v3.5a.92.92,0,0,0,.9.89h4.67c4.49,0,11.1-.27,16.7-2.57,6.91-2.84,10.56-8.16,10.56-15.38A13.49,13.49,0,0,0,131.73,437.45Z"/></g><g id="_Group_4" data-name="&lt;Group&gt;"><rect id="_Path_6" data-name="&lt;Path&gt;" class="cls-6" x="313.61" y="296.98" width="5.42" height="61.4" rx="1.03" ry="1.03"/><path id="_Path_7" data-name="&lt;Path&gt;" class="cls-7" d="M443,300.72V298.2a1.45,1.45,0,0,0-1.45-1.45H405.35a1.45,1.45,0,0,0-1.45,1.45v59.19a1.45,1.45,0,0,0,1.45,1.45H441.6a1.45,1.45,0,0,0,1.45-1.45v-2.53a1.45,1.45,0,0,0-1.45-1.45H410.77a1.45,1.45,0,0,1-1.45-1.45V303.62a1.45,1.45,0,0,1,1.45-1.45H441.6A1.45,1.45,0,0,0,443,300.72Z"/><rect id="_Path_8" data-name="&lt;Path&gt;" class="cls-7" x="417.44" y="325.08" width="24.23" height="5.42" rx="1.45" ry="1.45"/><path id="_Path_9" data-name="&lt;Path&gt;" class="cls-8" d="M55.59,343.37H52.33a2.5,2.5,0,0,0-2,.83h0A25.51,25.51,0,1,1,50.23,311h0a2.09,2.09,0,0,0,1.58.71h3.92c1.34,0,1.11-.79,1-1.09A30.92,30.92,0,1,0,56.54,345C56.71,344.67,57.36,343.37,55.59,343.37Z"/><path id="_Path_10" data-name="&lt;Path&gt;" class="cls-7" d="M178.45,300.44v-2.1c0-1.29-.8-1.56-1.26-1.6H140.83a1.71,1.71,0,0,0-1.53,1.93v58.53s0,1.63,1.5,1.63h36.09c1.3,0,1.53-.83,1.56-1.25V355a1.53,1.53,0,0,0-1.59-1.64H145.63c-.84,0-.91-.95-.91-.95V303.05a.83.83,0,0,1,.86-.88h31.09A1.79,1.79,0,0,0,178.45,300.44Z"/><path id="_Path_11" data-name="&lt;Path&gt;" class="cls-7" d="M175.46,325.08H154.33a1.52,1.52,0,0,0-1.49,1.6v2.47a1.32,1.32,0,0,0,1.49,1.35h21.13a1.53,1.53,0,0,0,1.61-1.45v-2.37a1.44,1.44,0,0,0-1.46-1.6Z"/><path id="_Path_12" data-name="&lt;Path&gt;" class="cls-9" d="M295.43,296.75H255.16s-1.17,0-1.17,1.13v3.06a1.29,1.29,0,0,0,1.28,1.24h16.46a.9.9,0,0,1,.88,1v54.07a1.12,1.12,0,0,0,1.12,1.15h3.37c.93,0,.93-1.24.93-1.24v-54a.92.92,0,0,1,1.06-.93h16.17a1.28,1.28,0,0,0,1.4-1.24V298A1.25,1.25,0,0,0,295.43,296.75Z"/><path id="_Path_13" data-name="&lt;Path&gt;" class="cls-10" d="M247,357.61l-22.68-59.88a1.62,1.62,0,0,0-1.54-1h-5.34a1.6,1.6,0,0,0-1.53,1h0l-20.23,59.82h0s-.4,1.3.95,1.3h3.22a1.69,1.69,0,0,0,1.53-1.21l2.39-7.08.25-.73,0-.09h0a1,1,0,0,1,1-.64h22.86c1.55,0,1.24-1.33,1.24-1.33l-1.2-3.18a1.69,1.69,0,0,0-1.56-.91H207c-.9,0-.61-.89-.61-.89l.19-.57,12.75-37.69h0l.1-.29c.23-.61.86-1.82,1.66.29l20.2,53.33h0a2,2,0,0,0,1.49,1h3.35C247.35,358.84,247.09,357.87,247,357.61Z"/><path id="_Path_14" data-name="&lt;Path&gt;" class="cls-11" d="M101.41,342.58h0c-1-.83-.09-1.12.15-1.18l.21,0a30.72,30.72,0,0,0,5.88-2c5.77-2.62,12.64-8.22,12.64-20,0-6.66-2.11-12-6.27-15.95-7.48-7.06-19-6.78-20.34-6.72H76.38a1.47,1.47,0,0,0-1.53,1.57v58.89a1.58,1.58,0,0,0,1.61,1.63h2.46c1.4,0,1.36-1.63,1.36-1.63V303.33a1.07,1.07,0,0,1,1.08-1.16H93.91c.09,0,10.34-.46,16.38,5.25,3.07,2.9,4.57,6.83,4.57,12,0,7.15-3,12-9.28,15A27.74,27.74,0,0,1,96,336.72h0a2,2,0,0,0-1.87,2.11v3a4.32,4.32,0,0,0,1.64,3.09l14.83,13h0l.16.14a3.88,3.88,0,0,0,2.41.86H117c2.8,0,.92-1.88.92-1.88Z"/><path id="_Path_15" data-name="&lt;Path&gt;" class="cls-10" d="M387.37,296.75H384a1.54,1.54,0,0,0-1.37,1l-18.08,53.46c-.76,2.24-1.57.28-1.67,0l-20.26-53.5a1.61,1.61,0,0,0-1.4-1h-3.37c-1.43,0-.88,1.34-.88,1.34h0l22.64,59.78a1.61,1.61,0,0,0,1.4,1h5.65a1.54,1.54,0,0,0,1.37-1L388.28,298C388.37,297.73,388.59,296.75,387.37,296.75Z"/></g></g><path id="_Compound_Path_" data-name="&lt;Compound Path&gt;" class="cls-12" d="M373,64.91l-70.09-61A18.57,18.57,0,0,0,291.58,0l-59,3c-3.56.18-6.58.27-6.72.2s-.25-.07-.25,0-2.91.29-6.47.47l-79.24,4c-10.85.55-16.65,4.74-16.7,4.78L71.11,49.7A13.8,13.8,0,0,0,66,60l.94,46.3a16.76,16.76,0,0,0,5,10.74l34.28,29.86a34.2,34.2,0,0,0,11.13,6l100.35,28,2.21.64a23,23,0,0,1,8.6,5.64L230.4,189,287.64,246c2.53,2.51,5.37,1.76,6.32-1.68l9.75-35.41a16.76,16.76,0,0,1,7-10l48.75-34.94a17.51,17.51,0,0,0,6.2-10.19L377,75.58A13.28,13.28,0,0,0,373,64.91ZM209.63,13.33h.24c1,0,4.94-.06,6,2,1.27,2.51-1.16,5.18-1.16,5.18h0L163,75.12c-1.32,1.4-5.34,4.26-9.64,3.47s-6-8-6-8l-8.88-42.88c-.27-1.46-.83-5.47.73-7.89,1.69-2.61,5.46-3.19,7.1-3.32l.79,0h0l62.58-3.17ZM90.46,60h0l-.94-.43c-1.42-.74-4-2.45-4.2-5.34A6.37,6.37,0,0,1,88,48.89l31.1-22.23c.86-.6,4.22-2.74,6.94-1.73,2.35.88,3.22,3.67,3.47,4.73l7.91,38.21c.34,1.66,1.25,6.81-1.86,8.86-3.42,2.25-8.59.07-8.6.07ZM76,102,75.7,88.64h0l0-.8c0-1.1.21-3,1.37-3.3,1.72-.46,3,2.4,3,2.4h0l15.2,32.33h0l.1.22c.37.79,1.56,3.59.43,4.23s-2.6-.39-3.24-.92l-.33-.29h0L81,112.76A16.76,16.76,0,0,1,76,102Zm38.52,30c-3.57-.35-5.4-4.78-5.75-5.5l-.06-.13h0L85,76h0s-1.64-3.83.13-5.69c1.61-1.7,5.33-.23,5.33-.23l40.4,18.63s5.61,2.61,6.87,8c1.13,4.87-1,9.08-2.89,12.17l-13.48,18.94S118.44,132.4,114.5,132Zm81.56,33.3-64.48-18c-9.83-2.74-6.26-9.22-5.17-10.84L144,111.78a9.2,9.2,0,0,1,6.29-3.55c4.73-.28,8.58,3.92,9.41,4.82l41.83,45.63h0l.18.2C203,160.34,210.8,169.42,196.06,165.31Zm29.09-11.17c-.42,16.13-11.38,4.35-11.42,4.3l-48.51-52.92c-1.49-1.62-4.38-5.18-4.27-9.9a14.37,14.37,0,0,1,3.5-8.76L218.21,30c.6-.61,3-2.9,5.19-1.8,1.61.82,2,2.78,2.09,4.05ZM247.79,13c.52-1.38,2.35-1.71,3.25-1.79l.52,0h0l35-1.77a7.76,7.76,0,0,1,8.2,5.92l4.92,17.81h0l.43,1.54c.43,1.75.68,4-1.13,5.26-2.43,1.64-6.39-.53-6.39-.53L249.31,16C248.86,15.7,247.18,14.63,247.79,13ZM234.64,31.47h0s-.16-5.43,2.82-7.64,7.59.22,7.59.22l44.81,24.32h0l.64.35c1.33.77,4.31,2.79,4.38,5.49.1,4-4.46,6.73-4.46,6.73l-39,23.81h0c-1.15.7-7.83,4.16-12.86,1.34-3.46-1.95-4-7.63-4-9.81Zm3.45,133.06c-3.31-1.63-3.76-7-3.8-9.21l.1-34.24h0s0-.1,0-.25v-.37c0-1.9.35-7.69,3.57-9.45,4.07-2.23,10.46.8,10.46.8l41.36,22.91h0l.51.29c1.09.66,3.57,2.45,3.54,5.27a6.26,6.26,0,0,1-3.6,5.64l-.45.2h0l-39.3,17.39S242.75,166.82,238.09,164.53Zm56.85,41.69-5.65,20.53c-.95,3.44-3.79,4.19-6.32,1.68l-32.33-32.16s-3.67-3.67-2.24-5.66c1.12-1.56,4-1.14,5.34-.86l36.61,8.73A6.23,6.23,0,0,1,294.95,206.22Zm7.33-43.41-3.76,17.64s-1,4.84-4,6.66c-3.37,2.06-9,.78-9,.78l-30.18-7.19c-12.68-3.44-1.48-8.63-.45-9.1l.08,0h0l38.55-17.05h0s4.6-2,7.23.72S302.58,161.39,302.28,162.8Zm.89-35.07c-3.52,1.78-8.68-.85-8.68-.85L258.9,107.17h0l-.94-.52c-1.59-1-4.64-3.35-4.86-7.22-.24-4.17,3.53-7.08,5.11-8.11l35.51-21.67h0l.36-.22c1.24-.73,5.5-3,8.49-1.42,3.3,1.73,3.37,6.8,3.39,8.34l.64,43.52C306.63,121.74,306.69,126,303.17,127.74Zm4.39-106c1.15-.5,2.45.49,2.84.82l38.13,33.17s2.14,2,1.38,3.12-2.76.5-2.76.5L325,53.43c-1.07-.29-6.68-2-9.67-5.13a19.81,19.81,0,0,1-4.13-7.65l-.07-.24h0l-4.28-15.49S306.15,22.34,307.56,21.73Zm11.55,62.6L345,140.25c1.5,3.24-.1,5.16-3.56,4.27l-14.9-3.84a17.48,17.48,0,0,1-8.06-4.65c-2-2.3-2.49-6.42-2.59-8.61l-.61-42.13c0-.65.07-3,1.32-3.13C318,82,319.1,84.32,319.1,84.32Zm27.21,77.74-.52.37h0l-29.71,21.3h0l-.07.05c-.52.37-4,2.69-6.29,1.18-2-1.31-1.93-3.8-1.73-5.08l5-23.55a9.55,9.55,0,0,1,4.15-5.86c2.61-1.51,5.88-1.24,8.51-.56l19.21,4.95h0l.13,0c.58.16,2.8.88,3.3,2.82S347.19,161.36,346.31,162.06ZM367,80.76,358.83,137c-.14.78-.6,2.56-2,2.82-1.85.33-3-2.24-3-2.24L323.51,72.06c-.47-1-1.59-4.16,0-6.79,1.24-2,4.13-1.63,5.35-1.35l.57.15h0l32.24,8.6A7.49,7.49,0,0,1,367,80.76Z"/></g></g></g></svg>