<svg xmlns="http://www.w3.org/2000/svg" viewBox="0 0 40.73 69.77"><defs><style>.cls-1{fill:none;stroke:#231f20;stroke-miterlimit:10;stroke-width:0.5px;}.cls-2{fill:#231f20;}</style></defs><title>go_top</title><g id="Layer_2" data-name="Layer 2"><g id="レイヤー_1" data-name="レイヤー 1"><g id="_Group_" data-name="&lt;Group&gt;"><line id="_Path_" data-name="&lt;Path&gt;" class="cls-1" x1="21.63" y1="69.77" x2="21.63" y2="43.74"/><polyline id="_Path_2" data-name="&lt;Path&gt;" class="cls-1" points="4.27 48.03 21.63 30.72 38.98 48.03"/></g><g id="_Group_2" data-name="&lt;Group&gt;"><g id="_Group_3" data-name="&lt;Group&gt;"><path id="_Compound_Path_" data-name="&lt;Compound Path&gt;" class="cls-2" d="M4.91,1H0V.27H10.64V1H5.73V15.52H4.91Z"/><path id="_Compound_Path_2" data-name="&lt;Compound Path&gt;" class="cls-2" d="M13.72,7.85C13.72,3,16.3,0,19.91,0s6.19,3,6.19,7.85-2.58,7.94-6.19,7.94S13.72,12.66,13.72,7.85Zm11.57,0c0-4.37-2.16-7.12-5.37-7.12s-5.37,2.75-5.37,7.12,2.16,7.2,5.38,7.2S25.29,12.22,25.29,7.85Z"/><path id="_Compound_Path_3" data-name="&lt;Compound Path&gt;" class="cls-2" d="M31.6.27h3.67c3.46,0,5.46,1.11,5.46,4.16s-2,4.37-5.37,4.37h-3v6.72H31.6ZM35.08,8.1c3.25,0,4.81-1,4.81-3.67S38.3,1,35,1H32.38V8.1Z"/></g></g></g></g></svg>