<svg xmlns="http://www.w3.org/2000/svg" viewBox="0 0 398.89 87.92"><defs><style>.cls-1{fill:#231f20;}</style></defs><title>how-to-use-main-small-title</title><g id="Layer_2" data-name="Layer 2"><g id="レイヤー_1" data-name="レイヤー 1"><g id="_Group_" data-name="&lt;Group&gt;"><path class="cls-1" d="M129.21.49a48.93,48.93,0,0,1-3.75,7.56V32h-1.61V10.54a39.44,39.44,0,0,1-4.37,5.29,18,18,0,0,0-1.08-1.54A40.4,40.4,0,0,0,127.67,0Zm11,18.62a13.45,13.45,0,0,1-2.52,7.11,35.46,35.46,0,0,0,13.48,4.13,7.24,7.24,0,0,0-1.05,1.58,36.3,36.3,0,0,1-13.44-4.52A18.92,18.92,0,0,1,128.3,32a8.84,8.84,0,0,0-1-1.37c3.71-1,6.27-2.42,7.95-4.1a18.29,18.29,0,0,1-5.53-6l1.44-.56a16.41,16.41,0,0,0,5.11,5.32,12.08,12.08,0,0,0,2.28-6.2h-8.89V9.8h9v-4H128.47V4.24h10.22V.18h1.65V4.24h10.54V5.81H140.34v4h9.28v9.31Zm-1.51-1.5c0-.77,0-1.54,0-2.31v-4h-7.46v6.3Zm1.68-6.3v4c0,.77,0,1.54,0,2.31H148v-6.3Z"/><path class="cls-1" d="M161.43,8.05a78.13,78.13,0,0,0,.28,8.68c.63,6.3,2.63,10.33,5.29,10.33,1.86,0,3.61-3.26,4.66-7.18l1.47,1.5c-2,5.78-4.06,7.74-6.16,7.74-3,0-6-3.22-7-12-.31-2.87-.35-7.18-.35-9.14a18.73,18.73,0,0,0-.17-2.83l2.21.07C161.57,5.81,161.46,7.21,161.43,8.05ZM186.1,22.82l-1.82.73c-.63-6.62-2.91-12.74-5.92-16.66l1.75-.63A35.85,35.85,0,0,1,186.1,22.82Z"/><path class="cls-1" d="M204.69,8c-.11,2.1-.28,4.27-.59,6.44h14.28s0,.67-.07,1c-.74,10.29-1.43,14.14-2.76,15.44a3.31,3.31,0,0,1-2.56.91c-1.16.07-3.43,0-5.81-.14a3.62,3.62,0,0,0-.59-1.68c2.59.25,5,.28,5.92.28s1.26,0,1.61-.39c1.08-1,1.82-4.58,2.45-13.72H203.82c-1.19,6.41-4,12.39-11.1,15.75a6.21,6.21,0,0,0-1.22-1.33c9.87-4.37,11-14.14,11.38-22.54H191.7V6.37h14.56V0h1.68V6.37h14.74V8Z"/><path class="cls-1" d="M234.61,2.8a11.12,11.12,0,0,0-.46,1.86,81.73,81.73,0,0,0-1.79,14.28,46.7,46.7,0,0,0,.42,6.23c.6-1.79,1.58-4.37,2.21-5.92l1.09.84a74,74,0,0,0-2.45,7.28,5.47,5.47,0,0,0-.14,1.51c0,.31.07.77.11,1l-1.65.14a43.86,43.86,0,0,1-1.22-10.92c0-5,1.19-11.66,1.64-14.63a14.37,14.37,0,0,0,.17-1.92Zm23.28,24.68A23.78,23.78,0,0,0,252,23.24c0,.49,0,1,0,1.4,0,2.38-1,5.25-5.57,5.25s-6.86-1.86-6.86-4.66c0-2.52,2.38-4.83,6.83-4.83a15.73,15.73,0,0,1,3.75.46c-.14-3-.35-7-.39-9.94-1.26,0-2.55.07-3.82.07-2,0-3.67-.1-5.67-.25V9c1.92.17,3.75.28,5.74.28,1.26,0,2.52,0,3.75-.07,0-1.82,0-3.46,0-4.58a18.9,18.9,0,0,0-.1-2h2.1c-.1.7-.17,1.33-.21,2-.07,1.08-.07,2.91-.07,4.52a53.17,53.17,0,0,0,6.3-.81v1.79c-2,.32-4.13.56-6.3.7,0,3.43.28,7.35.42,10.61a23.86,23.86,0,0,1,6.9,4.55Zm-7.63-4.9a12.54,12.54,0,0,0-4-.63c-2.94,0-5,1.37-5,3.15s1.82,3.12,4.73,3.12c3.36,0,4.27-1.65,4.27-4.13C250.3,23.66,250.3,23.17,250.26,22.58Z"/><path class="cls-1" d="M274.58,30.91a55.45,55.45,0,0,0-7.88-7.84l1.43-1.3a69.64,69.64,0,0,1,8,7.81Z"/><path class="cls-1" d="M29.72,76.62h-14v8.82c0,1.16-.28,1.71-1.26,2a25.37,25.37,0,0,1-5.57.28,6.11,6.11,0,0,0-.77-1.61c2.49,0,4.55,0,5.11,0s.77-.17.77-.63V76.62H0V75H14V72.14h1.23a33.59,33.59,0,0,0,6-4.37H5.46V66.15H22.82l.38-.07,1.16.84a36.43,36.43,0,0,1-8.65,6.51V75h14ZM2.07,67.8H.42V60.1H13.93V56h1.71V60.1H29.23v7.7H27.51V61.74H2.07Z"/><path class="cls-1" d="M60,85.26c0-.21.07-1,.07-2H42.35c-1.47,0-2.84,0-3.64.1v-2.1c.73.07,2.21.17,3.61.17H60.1V63.7H42.74c-1.19,0-2.84.07-3.57.11V61.74c1.08.1,2.45.17,3.54.17h17c.77,0,1.58,0,2.35,0,0,.74-.07,1.72-.07,2.38V82.32c0,1.26.07,2.7.11,2.94Z"/><path class="cls-1" d="M87.17,78.23a32.3,32.3,0,0,0,11-12.46l1.09,1.86A33.86,33.86,0,0,1,88.22,79.77,38.49,38.49,0,0,1,74,85.51l-1.16-1.82A35.42,35.42,0,0,0,87.17,78.23Zm-3.33-11-1.37,1.37a75.71,75.71,0,0,0-8.68-7.18L75,60.17A80.44,80.44,0,0,1,83.84,67.27Z"/><path class="cls-1" d="M133.46,68.71c.74,0,1.68,0,2.49-.11v1.89c-.7,0-1.68-.07-2.49-.07H123.35c-.07,3.85-.52,7.25-2,9.94a17.46,17.46,0,0,1-6.79,6.16l-1.68-1.26a14.73,14.73,0,0,0,6.76-5.57c1.61-2.63,1.86-5.78,1.92-9.28h-11c-1,0-1.89,0-2.83.07V68.6c.91.07,1.75.11,2.83.11Zm-18.62-7c-1.12,0-2.06,0-2.87.1v-2a22.56,22.56,0,0,0,2.8.17H129a28.71,28.71,0,0,0,3-.17v2c-.95-.07-2.1-.1-3-.1Z"/><path class="cls-1" d="M157.2,80.68c.07-1.47.14-4.17.14-6.09-3.57,1.89-6.37,3.92-6.37,6.58,0,3.15,3.29,3.5,7,3.5a63.51,63.51,0,0,0,9.21-.77l0,1.86a82.54,82.54,0,0,1-9.28.56c-4.69,0-8.65-.91-8.65-5,0-3.85,4-6.33,8.05-8.47h0c-.14-1.75-1.5-2.73-3.43-2.73a9.43,9.43,0,0,0-6.3,2.63,43.38,43.38,0,0,0-3.15,3.54l-1.57-1.19c5-5,7.11-8.82,8.16-11.24-.7,0-1.4,0-2,0-1.54,0-3.67-.07-5.6-.17V61.92a49.63,49.63,0,0,0,5.71.35c.84,0,1.68,0,2.55,0a19.59,19.59,0,0,0,1.05-4.48l1.85.14c-.25,1.08-.59,2.63-1.12,4.31a86.05,86.05,0,0,0,11-1.08v1.75a96.31,96.31,0,0,1-11.62,1A25.38,25.38,0,0,1,149,70.25a10.09,10.09,0,0,1,5.29-1.65c2.35,0,4.24,1.26,4.59,3.47,2.7-1.29,5.25-2.31,7.32-3.26.84-.38,1.47-.7,2.24-1.12l.77,1.79c-.74.21-1.61.56-2.42.88-2.21.88-5,2-7.87,3.4,0,2,0,5.22.07,6.93Z"/><path class="cls-1" d="M193.58,58.31c0,6,.7,19.46,15,28a10.09,10.09,0,0,0-1.4,1.33,30.59,30.59,0,0,1-14.49-21c-2.62,9.91-7.14,16.66-14.7,21a14.92,14.92,0,0,0-1.51-1.37c8.05-4.2,12.46-11.45,14.77-21.7l1.12.21a38.26,38.26,0,0,1-.42-4.87h-9V58.31Z"/><path class="cls-1" d="M245.08,63.95s0,.74,0,1c-.88,14.77-1.61,19.92-3.15,21.6a3.33,3.33,0,0,1-2.66,1.08,47.62,47.62,0,0,1-5.57-.17,4,4,0,0,0-.59-1.68c2.52.25,4.83.25,5.71.25a2,2,0,0,0,1.61-.49c1.33-1.29,2.14-6.41,2.91-19.88H230.13c-.49,7.28-2.8,15.79-13.16,22.3a5.68,5.68,0,0,0-1.29-1.29c10-6.23,12.25-14.18,12.71-21H216.69V63.95h11.8c0-.84,0-1.61,0-2.42V56.18h1.72v5.36c0,.8,0,1.58,0,2.42Z"/><path class="cls-1" d="M272.71,62.55c4.62,0,8.3,0,9.8,0l0,1.75c-1.82-.1-4.73-.14-9.77-.14h-1.23c0,2.07,0,4.34.07,6a8,8,0,0,1,1,4.27c0,4.76-2,9.7-9.87,12.11L261.13,85c5.32-1.26,8.37-3.78,9.35-7.6a4.43,4.43,0,0,1-3.57,1.68,5.27,5.27,0,0,1-5.53-5.53A5.8,5.8,0,0,1,267,67.76a5.49,5.49,0,0,1,2.84.7c0-1.12,0-2.7,0-4.27-5.29.07-11.45.28-15.82.67L254,63c3.71-.1,10.29-.35,15.82-.42,0-1.26,0-2.34-.07-3a10.8,10.8,0,0,0-.17-1.71h2.14c0,.28-.11,1.33-.11,1.71,0,.67,0,1.72-.07,2.94Zm-2,10.12c-.46-2.38-1.89-3.29-3.64-3.29a4,4,0,0,0-4,4.13,3.75,3.75,0,0,0,4,4C269.35,77.46,270.68,75.67,270.68,72.66Z"/><path class="cls-1" d="M310.39,60.76c-.52.39-1.22.88-1.68,1.23-1.61,1.22-6.86,6-9.84,8.47a16.6,16.6,0,0,1,5.6-.91c5.67,0,9.63,3.4,9.63,7.88,0,5.64-4.87,8.89-11.59,8.89-4.69,0-7.11-2-7.11-4.55,0-2.1,1.89-4.06,4.83-4.06,4.31,0,6.51,3,7,6.27,3.15-1.09,5.15-3.33,5.15-6.58,0-3.54-3.54-6.27-8.16-6.27-6,0-8.93,2.21-13.72,6.83l-1.37-1.36c3.12-2.63,7.7-6.44,9.7-8.12s6.65-5.71,8.44-7.25c-1.89.11-9.94.49-11.73.56a19.14,19.14,0,0,0-2,.17l-.07-2c.67.07,1.54.1,2.07.1,1.75,0,10.47-.31,12.22-.49a5.61,5.61,0,0,0,1.4-.25Zm-4.87,23.63c-.38-3-2.21-5.15-5.32-5.15-1.75,0-3.12,1-3.12,2.42,0,1.89,2.31,3,5.21,3A18.42,18.42,0,0,0,305.52,84.39Z"/><path class="cls-1" d="M338.61,64.86A64.86,64.86,0,0,1,331.16,66c-.32,1.54-.7,3.15-1.12,4.69a98.9,98.9,0,0,1-5.39,15.79l-2.07-.67c2.1-3.64,4.41-10.54,5.71-15.47.35-1.26.7-2.73,1-4.17-1.33.1-2.59.17-3.71.17-1.44,0-2.63,0-3.92-.14l0-1.82a28.41,28.41,0,0,0,4,.25c1.19,0,2.56-.07,4-.18.32-1.54.56-2.87.67-3.64a11.74,11.74,0,0,0,.11-2.45l2.24.17c-.17.67-.42,1.79-.53,2.42-.21,1-.42,2.1-.67,3.29A50.82,50.82,0,0,0,338.61,63Zm-1.79,12.57a12,12,0,0,0-.53,3.25c0,1.72.74,3.54,6.37,3.54a32.14,32.14,0,0,0,6.55-.67l-.07,1.89a44.09,44.09,0,0,1-6.51.49c-5.25,0-8.05-1.54-8.05-4.9a18.38,18.38,0,0,1,.49-3.78Zm-.18-8.26c1.72-.18,3.92-.28,6.13-.28a53.45,53.45,0,0,1,5.95.28l-.07,1.79a43.06,43.06,0,0,0-5.78-.42,54.1,54.1,0,0,0-6.23.38Zm10-4.1a37.94,37.94,0,0,0-2.91-4.87l1.33-.6A42.65,42.65,0,0,1,348,64.4Zm2.1-6.79a39.35,39.35,0,0,1,3,4.8l-1.37.63a35,35,0,0,0-3-4.83Z"/><path class="cls-1" d="M363.72,58.84c-.14.49-.32,1.29-.46,1.89-1.26,5.74-2.38,13.41-.87,19.92.46-1.68,1.22-4,1.89-6l1.16.67c-.7,2.07-1.86,5.6-2.17,7.18a5.47,5.47,0,0,0-.14,1.47c0,.31.1.73.1,1l-1.5.21A38.85,38.85,0,0,1,360,74.34a92.67,92.67,0,0,1,1.4-13.83,13.64,13.64,0,0,0,.14-1.89Zm23.59,8a44.51,44.51,0,0,1-5.85.74v1c0,7.88.35,13.9-7.25,18.2l-1.71-1.33a11.32,11.32,0,0,0,3-1.82c4.34-3.54,4.27-7.88,4.27-15.05v-.91c-1.54.11-3.12.14-4.66.14-1.75,0-4.37-.11-5.78-.25V65.7a39.83,39.83,0,0,0,5.78.42c1.5,0,3.08,0,4.62-.14-.07-2.28-.17-5-.21-5.74a12.45,12.45,0,0,0-.31-1.86h2.24a12.34,12.34,0,0,0-.11,1.82c0,.73,0,3.43.11,5.67a35.75,35.75,0,0,0,5.88-.91Z"/><path class="cls-1" d="M395.32,83.79a1.83,1.83,0,0,1,1.79-1.92,1.91,1.91,0,1,1-1.79,1.92Zm.77-21.6,0-2.94h2.1l0,2.94-.25,15.93h-1.51Z"/></g></g></g></svg>