<svg xmlns="http://www.w3.org/2000/svg" viewBox="0 0 359.46 20.11"><defs><style>.cls-1{fill:#231f20;}</style></defs><title>how-title</title><g id="Layer_2" data-name="Layer 2"><g id="レイヤー_1" data-name="レイヤー 1"><g id="_Group_" data-name="&lt;Group&gt;"><g id="_Group_2" data-name="&lt;Group&gt;"><path id="_Compound_Path_" data-name="&lt;Compound Path&gt;" class="cls-1" d="M6.8.33A31,31,0,0,1,4.45,5.08v15h-1V6.64A24.75,24.75,0,0,1,.68,10,11.16,11.16,0,0,0,0,9,25.38,25.38,0,0,0,5.83,0ZM13.69,12A8.47,8.47,0,0,1,12.1,16.5a22.29,22.29,0,0,0,8.47,2.6,4.56,4.56,0,0,0-.66,1,22.81,22.81,0,0,1-8.45-2.84,11.88,11.88,0,0,1-5.24,2.86,5.67,5.67,0,0,0-.62-.86,11,11,0,0,0,5-2.57,11.51,11.51,0,0,1-3.48-3.74l.9-.35a10.31,10.31,0,0,0,3.21,3.34A7.58,7.58,0,0,0,12.67,12H7.08V6.18h5.68V3.67H6.34v-1h6.42V.13h1V2.68h6.62v1H13.8V6.18h5.83V12Zm-.95-.95c0-.48,0-1,0-1.45V7.13H8.08v4Zm1.06-4V9.64c0,.48,0,1,0,1.45h4.84v-4Z"/><path id="_Compound_Path_2" data-name="&lt;Compound Path&gt;" class="cls-1" d="M27.17,5.08a49.25,49.25,0,0,0,.18,5.46c.4,4,1.65,6.49,3.32,6.49,1.17,0,2.27-2,2.93-4.51l.92.95c-1.25,3.63-2.55,4.86-3.87,4.86-1.87,0-3.79-2-4.4-7.55C26.05,9,26,6.27,26,5a11.65,11.65,0,0,0-.11-1.78l1.39,0C27.26,3.67,27.2,4.55,27.17,5.08Zm15.51,9.29-1.14.46A21.09,21.09,0,0,0,37.82,4.36l1.1-.4A22.51,22.51,0,0,1,42.69,14.37Z"/><path id="_Compound_Path_3" data-name="&lt;Compound Path&gt;" class="cls-1" d="M54.51,5c-.07,1.32-.18,2.68-.37,4h9s0,.42,0,.62c-.46,6.47-.9,8.89-1.74,9.7a2.08,2.08,0,0,1-1.61.57c-.73,0-2.16,0-3.65-.09a2.28,2.28,0,0,0-.37-1.06c1.63.15,3.17.18,3.72.18s.79,0,1-.24c.68-.64,1.14-2.88,1.54-8.62H54c-.75,4-2.49,7.79-7,9.9a3.87,3.87,0,0,0-.77-.84c6.2-2.75,6.91-8.89,7.15-14.17h-7V4H55.5V0h1.06V4h9.26V5Z"/><path id="_Compound_Path_4" data-name="&lt;Compound Path&gt;" class="cls-1" d="M73.45,1.78a6.88,6.88,0,0,0-.29,1.17,51.28,51.28,0,0,0-1.12,9,29.31,29.31,0,0,0,.26,3.92c.37-1.12,1-2.75,1.39-3.72l.68.53a46.7,46.7,0,0,0-1.54,4.58,3.42,3.42,0,0,0-.09.95c0,.2,0,.48.07.66l-1,.09A27.59,27.59,0,0,1,71,12.06a66.29,66.29,0,0,1,1-9.2,9.18,9.18,0,0,0,.11-1.21ZM88.08,17.29a15,15,0,0,0-3.7-2.66c0,.31,0,.62,0,.88,0,1.5-.66,3.3-3.5,3.3s-4.31-1.17-4.31-2.93c0-1.58,1.5-3,4.29-3a9.87,9.87,0,0,1,2.35.29C83.16,11.27,83,8.76,83,6.89c-.79,0-1.61,0-2.4,0-1.23,0-2.31-.07-3.56-.15V5.7c1.21.11,2.35.18,3.61.18.79,0,1.58,0,2.35,0,0-1.14,0-2.18,0-2.88A11.81,11.81,0,0,0,83,1.67h1.32a12.51,12.51,0,0,0-.13,1.25c0,.68,0,1.83,0,2.84a33.45,33.45,0,0,0,4-.51V6.38c-1.28.2-2.6.35-4,.44,0,2.16.18,4.62.26,6.67a15,15,0,0,1,4.33,2.86Zm-4.8-3.08a7.89,7.89,0,0,0-2.51-.4c-1.85,0-3.12.86-3.12,2s1.14,2,3,2c2.11,0,2.68-1,2.68-2.6C83.31,14.9,83.31,14.59,83.29,14.21Z"/><path id="_Compound_Path_5" data-name="&lt;Compound Path&gt;" class="cls-1" d="M98.58,19.45a34.86,34.86,0,0,0-5-4.93l.9-.81a43.74,43.74,0,0,1,5,4.91Z"/><path id="_Compound_Path_6" data-name="&lt;Compound Path&gt;" class="cls-1" d="M125.9,13h-8.8v5.54c0,.73-.18,1.08-.79,1.25a15.89,15.89,0,0,1-3.5.18,3.86,3.86,0,0,0-.48-1c1.56,0,2.86,0,3.21,0s.48-.11.48-.4V13h-8.8v-1H116V10.17h.77a21.14,21.14,0,0,0,3.78-2.75h-9.92v-1h10.91l.24,0,.73.53A22.88,22.88,0,0,1,117.1,11v1h8.8ZM108.52,7.44h-1V2.6H116V0h1.08V2.6h8.54V7.44h-1.08V3.63h-16Z"/><path id="_Compound_Path_7" data-name="&lt;Compound Path&gt;" class="cls-1" d="M145.09,18.42c0-.13,0-.66,0-1.28H134c-.92,0-1.78,0-2.29.07V15.89c.46,0,1.39.11,2.27.11h11.18V4.86H134.22c-.75,0-1.78,0-2.24.07V3.63c.68.07,1.54.11,2.22.11h10.67c.48,0,1,0,1.47,0,0,.46,0,1.08,0,1.5V16.57c0,.79,0,1.69.07,1.85Z"/><path id="_Compound_Path_8" data-name="&lt;Compound Path&gt;" class="cls-1" d="M162.31,14a20.31,20.31,0,0,0,6.93-7.83l.68,1.17A21.29,21.29,0,0,1,163,15,24.18,24.18,0,0,1,154,18.57l-.73-1.14A22.28,22.28,0,0,0,162.31,14Zm-2.09-6.89-.86.86a47.57,47.57,0,0,0-5.46-4.51l.77-.81A50.64,50.64,0,0,1,160.22,7.11Z"/><path id="_Compound_Path_9" data-name="&lt;Compound Path&gt;" class="cls-1" d="M191.54,8c.46,0,1.06,0,1.56-.07V9.13c-.44,0-1.06,0-1.56,0h-6.36a13.6,13.6,0,0,1-1.25,6.25,11,11,0,0,1-4.27,3.87l-1.06-.79a9.26,9.26,0,0,0,4.25-3.5c1-1.65,1.17-3.63,1.21-5.83h-6.91c-.66,0-1.19,0-1.78,0V7.94c.57,0,1.1.07,1.78.07ZM179.83,3.63c-.7,0-1.3,0-1.8.07V2.46a14.16,14.16,0,0,0,1.76.11h9a18,18,0,0,0,1.87-.11V3.7c-.59,0-1.32-.07-1.87-.07Z"/><path id="_Compound_Path_10" data-name="&lt;Compound Path&gt;" class="cls-1" d="M206.61,15.53c0-.92.09-2.62.09-3.83-2.24,1.19-4,2.46-4,4.14,0,2,2.07,2.2,4.4,2.2a40,40,0,0,0,5.79-.48l0,1.17a51.9,51.9,0,0,1-5.83.35c-2.95,0-5.43-.57-5.43-3.12s2.49-4,5.06-5.33h0a1.91,1.91,0,0,0-2.16-1.72,5.93,5.93,0,0,0-4,1.65,27.24,27.24,0,0,0-2,2.22l-1-.75A22.65,22.65,0,0,0,202.71,5c-.44,0-.88,0-1.28,0-1,0-2.31,0-3.52-.11V3.74A31.17,31.17,0,0,0,201.5,4c.53,0,1.06,0,1.61,0a12.32,12.32,0,0,0,.66-2.82l1.17.09c-.15.68-.37,1.65-.7,2.71a54,54,0,0,0,6.93-.68v1.1a60.52,60.52,0,0,1-7.3.62,16,16,0,0,1-2.38,4,6.34,6.34,0,0,1,3.32-1,2.68,2.68,0,0,1,2.88,2.18c1.69-.81,3.3-1.45,4.6-2,.53-.24.92-.44,1.41-.7l.48,1.12c-.46.13-1,.35-1.52.55-1.39.55-3.15,1.25-5,2.13,0,1.25,0,3.28,0,4.36Z"/><path id="_Compound_Path_11" data-name="&lt;Compound Path&gt;" class="cls-1" d="M229.61,1.47c0,3.76.44,12.23,9.42,17.6a6.34,6.34,0,0,0-.88.84A19.23,19.23,0,0,1,229,6.73C227.39,13,224.55,17.21,219.8,20a9.43,9.43,0,0,0-.95-.86c5.06-2.64,7.83-7.2,9.29-13.64l.7.13a23.9,23.9,0,0,1-.26-3.06h-5.66V1.47Z"/><path id="_Compound_Path_12" data-name="&lt;Compound Path&gt;" class="cls-1" d="M262.08,5s0,.46,0,.62c-.55,9.29-1,12.52-2,13.58a2.1,2.1,0,0,1-1.67.68,29.9,29.9,0,0,1-3.5-.11,2.55,2.55,0,0,0-.37-1.06c1.58.15,3,.15,3.59.15a1.25,1.25,0,0,0,1-.31c.84-.81,1.34-4,1.83-12.5h-8.27a16.62,16.62,0,0,1-8.27,14,3.62,3.62,0,0,0-.81-.81c6.31-3.92,7.7-8.91,8-13.2h-7.35V5h7.42c0-.53,0-1,0-1.52V.13h1.08V3.5c0,.51,0,1,0,1.52Z"/><path id="_Compound_Path_13" data-name="&lt;Compound Path&gt;" class="cls-1" d="M279.58,4.14c2.9,0,5.21,0,6.16,0l0,1.1c-1.14-.07-3-.09-6.14-.09h-.77c0,1.3,0,2.73,0,3.74a5.05,5.05,0,0,1,.66,2.68c0,3-1.28,6.09-6.21,7.61l-1-1c3.34-.79,5.26-2.38,5.88-4.77a2.78,2.78,0,0,1-2.25,1.06A3.31,3.31,0,0,1,272.45,11,3.65,3.65,0,0,1,276,7.42a3.45,3.45,0,0,1,1.78.44c0-.7,0-1.69,0-2.68-3.32,0-7.19.18-9.95.42l0-1.17c2.33-.07,6.47-.22,9.95-.26,0-.79,0-1.47,0-1.87a6.81,6.81,0,0,0-.11-1.08h1.34c0,.18-.07.84-.07,1.08,0,.42,0,1.08,0,1.85ZM278.3,10.5A2.21,2.21,0,0,0,276,8.43a2.51,2.51,0,0,0-2.49,2.6A2.36,2.36,0,0,0,276,13.51C277.47,13.51,278.3,12.39,278.3,10.5Z"/><path id="_Compound_Path_14" data-name="&lt;Compound Path&gt;" class="cls-1" d="M303.42,3c-.33.24-.77.55-1.06.77-1,.77-4.31,3.74-6.18,5.33a10.44,10.44,0,0,1,3.52-.57c3.56,0,6.05,2.13,6.05,5,0,3.54-3.06,5.59-7.28,5.59-2.95,0-4.47-1.28-4.47-2.86a2.78,2.78,0,0,1,3-2.55,4.28,4.28,0,0,1,4.38,3.94,4.28,4.28,0,0,0,3.23-4.14c0-2.22-2.22-3.94-5.13-3.94-3.74,0-5.61,1.39-8.62,4.29L290,13l6.1-5.1c1.21-1,4.18-3.59,5.3-4.55l-7.37.35a12.09,12.09,0,0,0-1.25.11l0-1.23c.42,0,1,.07,1.3.07,1.1,0,6.58-.2,7.68-.31a3.52,3.52,0,0,0,.88-.15Zm-3.06,14.85C300.12,16,299,14.63,297,14.63c-1.1,0-2,.64-2,1.52,0,1.19,1.45,1.89,3.28,1.89A11.53,11.53,0,0,0,300.36,17.87Z"/><path id="_Compound_Path_15" data-name="&lt;Compound Path&gt;" class="cls-1" d="M321.32,5.59a40.86,40.86,0,0,1-4.69.75c-.2,1-.44,2-.7,2.95a62.2,62.2,0,0,1-3.39,9.92l-1.3-.42a47.43,47.43,0,0,0,3.59-9.73c.22-.79.44-1.72.64-2.62-.84.07-1.63.11-2.33.11-.9,0-1.65,0-2.46-.09l0-1.14a17.73,17.73,0,0,0,2.53.15c.75,0,1.61,0,2.53-.11.2-1,.35-1.8.42-2.29a7.38,7.38,0,0,0,.07-1.54l1.41.11c-.11.42-.26,1.12-.33,1.52-.13.62-.26,1.32-.42,2.07a32.05,32.05,0,0,0,4.47-.81Zm-1.12,7.9a7.53,7.53,0,0,0-.33,2c0,1.08.46,2.22,4,2.22a20.17,20.17,0,0,0,4.12-.42l0,1.19a27.77,27.77,0,0,1-4.09.31c-3.3,0-5.06-1-5.06-3.08a11.51,11.51,0,0,1,.31-2.38Zm-.11-5.19c1.08-.11,2.46-.18,3.85-.18a33.63,33.63,0,0,1,3.74.18l0,1.12A27.19,27.19,0,0,0,324,9.15a34,34,0,0,0-3.92.24Zm6.27-2.57a23.75,23.75,0,0,0-1.83-3.06l.84-.37a26.81,26.81,0,0,1,1.83,3Zm1.32-4.27a24.63,24.63,0,0,1,1.91,3l-.86.4a22.07,22.07,0,0,0-1.87-3Z"/><path id="_Compound_Path_16" data-name="&lt;Compound Path&gt;" class="cls-1" d="M337.23,1.8c-.09.31-.2.81-.29,1.19-.79,3.61-1.5,8.43-.55,12.52.29-1.06.77-2.53,1.19-3.76l.73.42c-.44,1.3-1.17,3.52-1.36,4.51a3.41,3.41,0,0,0-.09.92c0,.2.07.46.07.64l-.95.13a24.42,24.42,0,0,1-1.08-6.82,58.15,58.15,0,0,1,.88-8.69,8.71,8.71,0,0,0,.09-1.19Zm14.83,5a27.9,27.9,0,0,1-3.67.46v.64c0,5,.22,8.74-4.55,11.44l-1.08-.84a7.13,7.13,0,0,0,1.87-1.14c2.73-2.22,2.68-5,2.68-9.46V7.37c-1,.07-2,.09-2.93.09s-2.75-.07-3.63-.15V6.12a25.14,25.14,0,0,0,3.63.26c.95,0,1.94,0,2.9-.09,0-1.43-.11-3.12-.13-3.61a7.73,7.73,0,0,0-.2-1.17h1.41a7.79,7.79,0,0,0-.07,1.14c0,.46,0,2.16.07,3.56a22.41,22.41,0,0,0,3.7-.57Z"/><path id="_Compound_Path_17" data-name="&lt;Compound Path&gt;" class="cls-1" d="M357.22,17.49a1.15,1.15,0,0,1,1.12-1.21,1.2,1.2,0,1,1-1.12,1.21Zm.48-13.58,0-1.85H359l0,1.85-.15,10h-.95Z"/></g></g></g></g></svg>