<svg xmlns="http://www.w3.org/2000/svg" xmlns:xlink="http://www.w3.org/1999/xlink" viewBox="0 0 199.69 54.87"><defs><style>.cls-1{fill:url(#名称未設定グラデーション_3);}.cls-2{fill:#fff;}</style><linearGradient id="名称未設定グラデーション_3" y1="27.44" x2="199.69" y2="27.44" gradientUnits="userSpaceOnUse"><stop offset="0"/><stop offset="0.19" stop-color="#002533"/><stop offset="0.59" stop-color="#006e97"/><stop offset="0.87" stop-color="#009cd6"/><stop offset="1" stop-color="#00aeef"/></linearGradient></defs><title>login_button_small</title><g id="Layer_2" data-name="Layer 2"><g id="レイヤー_1" data-name="レイヤー 1"><g id="_Group_" data-name="&lt;Group&gt;"><rect id="_Rectangle_" data-name="&lt;Rectangle&gt;" class="cls-1" width="199.69" height="54.87" rx="11.08" ry="11.08"/><g id="_Group_2" data-name="&lt;Group&gt;"><path id="_Compound_Path_" data-name="&lt;Compound Path&gt;" class="cls-2" d="M68.4,18.14h2.14V33.21h7.37V35H68.4Z"/><path id="_Compound_Path_2" data-name="&lt;Compound Path&gt;" class="cls-2" d="M81.68,28.79c0-4.17,2.74-6.59,5.81-6.59s5.81,2.42,5.81,6.59-2.74,6.54-5.81,6.54S81.68,32.93,81.68,28.79Zm9.45,0c0-2.88-1.47-4.84-3.64-4.84s-3.62,2-3.62,4.84,1.45,4.79,3.62,4.79S91.12,31.67,91.12,28.79Z"/><path id="_Compound_Path_3" data-name="&lt;Compound Path&gt;" class="cls-2" d="M97.6,37.43a3.54,3.54,0,0,1,1.87-2.83V34.5a2.26,2.26,0,0,1-1.15-2.05,3.05,3.05,0,0,1,1.41-2.33V30a4.39,4.39,0,0,1-1.64-3.36,4.46,4.46,0,0,1,4.7-4.47,5.17,5.17,0,0,1,1.75.32h4.35v1.61h-2.56a3.57,3.57,0,0,1,1,2.58,4.29,4.29,0,0,1-4.56,4.35,4.35,4.35,0,0,1-1.87-.44,1.86,1.86,0,0,0-.81,1.5c0,.81.51,1.36,2.19,1.36h2.44c2.9,0,4.35.92,4.35,3,0,2.33-2.44,4.33-6.31,4.33C99.72,40.79,97.6,39.59,97.6,37.43Zm9.47-.65c0-1.15-.9-1.54-2.56-1.54h-2.17a7,7,0,0,1-1.61-.21,2.64,2.64,0,0,0-1.29,2.12c0,1.34,1.36,2.21,3.64,2.21S107.07,38.1,107.07,36.78Zm-1.64-10.11a2.67,2.67,0,1,0-5.32,0,2.68,2.68,0,1,0,5.32,0Z"/><path id="_Compound_Path_4" data-name="&lt;Compound Path&gt;" class="cls-2" d="M113.25,18.58a1.45,1.45,0,0,1,2.9,0,1.45,1.45,0,0,1-2.9,0Zm.39,3.94h2.1V35h-2.1Z"/><path id="_Compound_Path_5" data-name="&lt;Compound Path&gt;" class="cls-2" d="M121.84,22.52h1.73l.18,1.8h.07A6,6,0,0,1,128,22.2c2.63,0,3.83,1.71,3.83,4.91V35h-2.1V27.38c0-2.35-.71-3.34-2.37-3.34-1.29,0-2.17.65-3.43,1.91V35h-2.1Z"/></g></g></g></g></svg>