<svg xmlns="http://www.w3.org/2000/svg" xmlns:xlink="http://www.w3.org/1999/xlink" viewBox="0 0 99.17 27.25"><defs><style>.cls-1{fill:url(#名称未設定グラデーション_3);}.cls-2{fill:#fff;}</style><linearGradient id="名称未設定グラデーション_3" y1="13.63" x2="99.17" y2="13.63" gradientUnits="userSpaceOnUse"><stop offset="0"/><stop offset="0.19" stop-color="#002533"/><stop offset="0.59" stop-color="#006e97"/><stop offset="0.87" stop-color="#009cd6"/><stop offset="1" stop-color="#00aeef"/></linearGradient></defs><title>login_button</title><g id="Layer_2" data-name="Layer 2"><g id="レイヤー_1" data-name="レイヤー 1"><g id="_Group_" data-name="&lt;Group&gt;"><rect id="_Rectangle_" data-name="&lt;Rectangle&gt;" class="cls-1" width="99.17" height="27.25" rx="11.08" ry="11.08"/><g id="_Group_2" data-name="&lt;Group&gt;"><path id="_Compound_Path_" data-name="&lt;Compound Path&gt;" class="cls-2" d="M32.62,9h1.06V16.5h3.66v.9H32.62Z"/><path id="_Compound_Path_2" data-name="&lt;Compound Path&gt;" class="cls-2" d="M39.3,14.3a2.91,2.91,0,1,1,5.77,0,2.9,2.9,0,1,1-5.77,0Zm4.69,0c0-1.43-.73-2.4-1.81-2.4s-1.8,1-1.8,2.4.72,2.38,1.8,2.38S44,15.73,44,14.3Z"/><path id="_Compound_Path_3" data-name="&lt;Compound Path&gt;" class="cls-2" d="M47.28,18.59a1.76,1.76,0,0,1,.93-1.41v0a1.12,1.12,0,0,1-.57-1,1.52,1.52,0,0,1,.7-1.16v0a2.18,2.18,0,0,1-.81-1.67A2.21,2.21,0,0,1,49.86,11a2.56,2.56,0,0,1,.87.16h2.16V12H51.62a1.77,1.77,0,0,1,.5,1.28,2.13,2.13,0,0,1-2.27,2.16,2.16,2.16,0,0,1-.93-.22.93.93,0,0,0-.4.74c0,.4.25.68,1.09.68h1.21c1.44,0,2.16.46,2.16,1.48s-1.21,2.15-3.14,2.15C48.33,20.26,47.28,19.67,47.28,18.59Zm4.7-.32c0-.57-.45-.77-1.27-.77H49.64a3.51,3.51,0,0,1-.8-.1,1.31,1.31,0,0,0-.64,1.05c0,.66.68,1.1,1.81,1.1S52,18.92,52,18.27Zm-.81-5a1.33,1.33,0,1,0-2.64,0,1.33,1.33,0,1,0,2.64,0Z"/><path id="_Compound_Path_4" data-name="&lt;Compound Path&gt;" class="cls-2" d="M55.13,9.23a.72.72,0,0,1,1.44,0,.72.72,0,0,1-1.44,0Zm.19,2h1V17.4h-1Z"/><path id="_Compound_Path_5" data-name="&lt;Compound Path&gt;" class="cls-2" d="M59.47,11.18h.86l.09.89h0A3,3,0,0,1,62.54,11c1.3,0,1.9.85,1.9,2.44V17.4h-1V13.6c0-1.17-.36-1.66-1.18-1.66a2.36,2.36,0,0,0-1.71,1V17.4h-1Z"/></g></g></g></g></svg>