<svg xmlns="http://www.w3.org/2000/svg" viewBox="0 0 79.87 58.57"><defs><style>.cls-1{fill:#231f20;}.cls-2{fill:none;stroke:#fff;stroke-miterlimit:10;stroke-width:0.5px;}</style></defs><title>mail2</title><g id="Layer_2" data-name="Layer 2"><g id="レイヤー_1" data-name="レイヤー 1"><g id="_Group_" data-name="&lt;Group&gt;"><g id="_Group_2" data-name="&lt;Group&gt;"><rect id="_Rectangle_" data-name="&lt;Rectangle&gt;" class="cls-1" x="0.11" y="19.57" width="79.65" height="39"/><polyline id="_Path_" data-name="&lt;Path&gt;" class="cls-2" points="0.11 19.57 39.93 39.07 79.76 19.57"/></g><g id="_Group_3" data-name="&lt;Group&gt;"><path id="_Compound_Path_" data-name="&lt;Compound Path&gt;" class="cls-1" d="M23,0H24l1.72,4.79.65,1.83h0c.22-.61.41-1.22.62-1.83L28.71,0h.92V8.34H29V3.06c0-.69,0-1.6.08-2.3h0l-.65,1.87L26.6,7.45h-.55L24.29,2.62,23.64.76h0c0,.7.08,1.61.08,2.3V8.34H23Z"/><path id="_Compound_Path_2" data-name="&lt;Compound Path&gt;" class="cls-1" d="M39.31,5.54H36.06l-1,2.8h-.69L37.35,0h.71L41,8.34h-.73ZM39.13,5l-.5-1.51c-.34-1-.62-1.85-.92-2.86h0c-.29,1-.57,1.89-.9,2.86L36.25,5Z"/><path id="_Compound_Path_3" data-name="&lt;Compound Path&gt;" class="cls-1" d="M45.77,0h.69V8.34h-.69Z"/><path id="_Compound_Path_4" data-name="&lt;Compound Path&gt;" class="cls-1" d="M52.14,0h.69V7.75h3.8v.59H52.14Z"/></g></g></g></g></svg>